<svg id="Layer_1" data-name="Layer 1" xmlns="http://www.w3.org/2000/svg" xmlns:xlink="http://www.w3.org/1999/xlink" viewBox="0 0 566.93 566.93"><defs><style>.cls-1{fill:#288aca;}.cls-1,.cls-10,.cls-11,.cls-12,.cls-13,.cls-14,.cls-15,.cls-16,.cls-17,.cls-18,.cls-19,.cls-2,.cls-20,.cls-21,.cls-22,.cls-23,.cls-24,.cls-25,.cls-26,.cls-27,.cls-28,.cls-29,.cls-3,.cls-30,.cls-31,.cls-32,.cls-33,.cls-34,.cls-35,.cls-36,.cls-37,.cls-38,.cls-39,.cls-4,.cls-40,.cls-41,.cls-42,.cls-43,.cls-44,.cls-45,.cls-46,.cls-47,.cls-48,.cls-49,.cls-5,.cls-50,.cls-51,.cls-52,.cls-53,.cls-54,.cls-55,.cls-56,.cls-57,.cls-58,.cls-59,.cls-6,.cls-60,.cls-61,.cls-62,.cls-63,.cls-64,.cls-65,.cls-66,.cls-67,.cls-68,.cls-69,.cls-7,.cls-70,.cls-71,.cls-72,.cls-73,.cls-74,.cls-75,.cls-76,.cls-77,.cls-78,.cls-79,.cls-8,.cls-80,.cls-81,.cls-82,.cls-83,.cls-84,.cls-85,.cls-86,.cls-87,.cls-88,.cls-89,.cls-9,.cls-90,.cls-91{fill-rule:evenodd;}.cls-2{fill:url(#GradientFill_15);}.cls-3{fill:url(#GradientFill_16);}.cls-4{fill:url(#GradientFill_16-2);}.cls-5{fill:url(#GradientFill_16-3);}.cls-6{fill:url(#GradientFill_16-4);}.cls-7{fill:url(#GradientFill_16-5);}.cls-8{fill:url(#GradientFill_16-6);}.cls-9{fill:url(#GradientFill_16-7);}.cls-10{fill:url(#GradientFill_16-8);}.cls-11{fill:url(#GradientFill_16-9);}.cls-12{fill:url(#GradientFill_16-10);}.cls-13{fill:url(#GradientFill_16-11);}.cls-14{fill:url(#GradientFill_16-12);}.cls-15{fill:url(#GradientFill_16-13);}.cls-16{fill:url(#GradientFill_16-14);}.cls-17{fill:url(#GradientFill_16-15);}.cls-18{fill:url(#GradientFill_16-16);}.cls-19{fill:url(#GradientFill_16-17);}.cls-20{fill:url(#GradientFill_16-18);}.cls-21{fill:url(#GradientFill_16-19);}.cls-22{fill:url(#GradientFill_16-20);}.cls-23{fill:url(#GradientFill_16-21);}.cls-24{fill:url(#GradientFill_16-22);}.cls-25{fill:url(#GradientFill_16-23);}.cls-26{fill:url(#GradientFill_16-24);}.cls-27{fill:url(#GradientFill_16-25);}.cls-28{fill:url(#GradientFill_16-26);}.cls-29{fill:url(#GradientFill_16-27);}.cls-30{fill:url(#GradientFill_16-28);}.cls-31{fill:url(#GradientFill_16-29);}.cls-32{fill:url(#GradientFill_16-30);}.cls-33{fill:url(#GradientFill_16-31);}.cls-34{fill:url(#GradientFill_16-32);}.cls-35{fill:url(#GradientFill_16-33);}.cls-36{fill:url(#GradientFill_16-34);}.cls-37{fill:url(#GradientFill_16-35);}.cls-38{fill:url(#GradientFill_16-36);}.cls-39{fill:url(#GradientFill_16-37);}.cls-40{fill:url(#GradientFill_16-38);}.cls-41{fill:url(#GradientFill_16-39);}.cls-42{fill:url(#GradientFill_16-40);}.cls-43{fill:url(#GradientFill_16-41);}.cls-44{fill:url(#GradientFill_16-42);}.cls-45{fill:url(#GradientFill_16-43);}.cls-46{fill:url(#GradientFill_16-44);}.cls-47{fill:url(#GradientFill_16-45);}.cls-48{fill:url(#GradientFill_16-46);}.cls-49{fill:url(#GradientFill_16-47);}.cls-50{fill:url(#GradientFill_16-48);}.cls-51{fill:url(#GradientFill_16-49);}.cls-52{fill:url(#GradientFill_16-50);}.cls-53{fill:url(#GradientFill_16-51);}.cls-54{fill:url(#GradientFill_16-52);}.cls-55{fill:url(#GradientFill_16-53);}.cls-56{fill:url(#GradientFill_16-54);}.cls-57{fill:url(#GradientFill_16-55);}.cls-58{fill:url(#GradientFill_16-56);}.cls-59{fill:url(#GradientFill_16-57);}.cls-60{fill:url(#GradientFill_16-58);}.cls-61{fill:url(#GradientFill_16-59);}.cls-62{fill:url(#GradientFill_16-60);}.cls-63{fill:url(#GradientFill_16-61);}.cls-64{fill:url(#GradientFill_16-62);}.cls-65{fill:url(#GradientFill_16-63);}.cls-66{fill:url(#GradientFill_16-64);}.cls-67{fill:url(#GradientFill_16-65);}.cls-68{fill:url(#GradientFill_16-66);}.cls-69{fill:url(#GradientFill_16-67);}.cls-70{fill:url(#GradientFill_16-68);}.cls-71{fill:url(#GradientFill_16-69);}.cls-72{fill:url(#GradientFill_16-70);}.cls-73{fill:url(#GradientFill_16-71);}.cls-74{fill:url(#GradientFill_16-72);}.cls-75{fill:url(#GradientFill_16-73);}.cls-76{fill:url(#GradientFill_16-74);}.cls-77{fill:url(#GradientFill_16-75);}.cls-78{fill:url(#GradientFill_16-76);}.cls-79{fill:url(#GradientFill_16-77);}.cls-80{fill:url(#GradientFill_16-78);}.cls-81{fill:url(#GradientFill_16-79);}.cls-82{fill:url(#GradientFill_16-80);}.cls-83{fill:url(#GradientFill_16-81);}.cls-84{fill:url(#GradientFill_16-82);}.cls-85{fill:url(#GradientFill_16-83);}.cls-86{fill:url(#GradientFill_16-84);}.cls-87{fill:url(#GradientFill_17);}.cls-88{fill:url(#GradientFill_16-85);}.cls-89{fill:url(#GradientFill_16-86);}.cls-90{fill:url(#GradientFill_16-87);}.cls-91{fill:url(#GradientFill_16-88);}</style><linearGradient id="GradientFill_15" x1="370.84" y1="-615.51" x2="295.23" y2="465.62" gradientUnits="userSpaceOnUse"><stop offset="0" stop-color="#d2d3d4"/><stop offset="0.59" stop-color="#d2d3d4"/><stop offset="0.94" stop-color="#fff"/><stop offset="1" stop-color="#fff"/></linearGradient><linearGradient id="GradientFill_16" x1="210.61" y1="146.04" x2="199.98" y2="119.72" gradientUnits="userSpaceOnUse"><stop offset="0" stop-color="#d4d5d6"/><stop offset="1" stop-color="#fff"/></linearGradient><linearGradient id="GradientFill_16-2" x1="231.17" y1="157.06" x2="221.29" y2="132.6" xlink:href="#GradientFill_16"/><linearGradient id="GradientFill_16-3" x1="252.06" y1="168.91" x2="242.17" y2="144.46" xlink:href="#GradientFill_16"/><linearGradient id="GradientFill_16-4" x1="272.95" y1="180.78" x2="263.06" y2="156.32" xlink:href="#GradientFill_16"/><linearGradient id="GradientFill_16-5" x1="293.84" y1="192.63" x2="283.95" y2="168.18" xlink:href="#GradientFill_16"/><linearGradient id="GradientFill_16-6" x1="314.73" y1="204.49" x2="304.85" y2="180.03" xlink:href="#GradientFill_16"/><linearGradient id="GradientFill_16-7" x1="335.62" y1="216.35" x2="325.74" y2="191.89" xlink:href="#GradientFill_16"/><linearGradient id="GradientFill_16-8" x1="356.51" y1="228.21" x2="346.63" y2="203.75" xlink:href="#GradientFill_16"/><linearGradient id="GradientFill_16-9" x1="377.4" y1="240.07" x2="367.51" y2="215.61" xlink:href="#GradientFill_16"/><linearGradient id="GradientFill_16-10" x1="398.29" y1="251.93" x2="388.41" y2="227.47" xlink:href="#GradientFill_16"/><linearGradient id="GradientFill_16-11" x1="419.18" y1="263.78" x2="409.3" y2="239.33" xlink:href="#GradientFill_16"/><linearGradient id="GradientFill_16-12" x1="440.07" y1="275.64" x2="430.19" y2="251.18" xlink:href="#GradientFill_16"/><linearGradient id="GradientFill_16-13" x1="460.96" y1="287.5" x2="451.08" y2="263.04" xlink:href="#GradientFill_16"/><linearGradient id="GradientFill_16-14" x1="481.85" y1="299.36" x2="471.97" y2="274.9" xlink:href="#GradientFill_16"/><linearGradient id="GradientFill_16-15" x1="502.74" y1="311.22" x2="492.86" y2="286.76" xlink:href="#GradientFill_16"/><linearGradient id="GradientFill_16-16" x1="523.97" y1="323.92" x2="513.33" y2="297.59" xlink:href="#GradientFill_16"/><linearGradient id="GradientFill_16-17" x1="189.71" y1="158.15" x2="179.08" y2="131.82" xlink:href="#GradientFill_16"/><linearGradient id="GradientFill_16-18" x1="210.27" y1="169.16" x2="200.38" y2="144.71" xlink:href="#GradientFill_16"/><linearGradient id="GradientFill_16-19" x1="231.16" y1="181.02" x2="221.28" y2="156.56" xlink:href="#GradientFill_16"/><linearGradient id="GradientFill_16-20" x1="252.05" y1="192.88" x2="242.16" y2="168.42" xlink:href="#GradientFill_16"/><linearGradient id="GradientFill_16-21" x1="272.94" y1="204.74" x2="263.06" y2="180.28" xlink:href="#GradientFill_16"/><linearGradient id="GradientFill_16-22" x1="293.83" y1="216.59" x2="283.95" y2="192.14" xlink:href="#GradientFill_16"/><linearGradient id="GradientFill_16-23" x1="314.72" y1="228.45" x2="304.84" y2="204" xlink:href="#GradientFill_16"/><linearGradient id="GradientFill_16-24" x1="335.61" y1="240.31" x2="325.73" y2="215.86" xlink:href="#GradientFill_16"/><linearGradient id="GradientFill_16-25" x1="356.5" y1="252.17" x2="346.62" y2="227.72" xlink:href="#GradientFill_16"/><linearGradient id="GradientFill_16-26" x1="377.39" y1="264.03" x2="367.51" y2="239.57" xlink:href="#GradientFill_16"/><linearGradient id="GradientFill_16-27" x1="398.28" y1="275.89" x2="388.4" y2="251.43" xlink:href="#GradientFill_16"/><linearGradient id="GradientFill_16-28" x1="419.17" y1="287.74" x2="409.29" y2="263.29" xlink:href="#GradientFill_16"/><linearGradient id="GradientFill_16-29" x1="440.06" y1="299.6" x2="430.18" y2="275.15" xlink:href="#GradientFill_16"/><linearGradient id="GradientFill_16-30" x1="460.95" y1="311.47" x2="451.07" y2="287.01" xlink:href="#GradientFill_16"/><linearGradient id="GradientFill_16-31" x1="481.84" y1="323.32" x2="471.96" y2="298.86" xlink:href="#GradientFill_16"/><linearGradient id="GradientFill_16-32" x1="503.07" y1="336.02" x2="492.43" y2="309.7" xlink:href="#GradientFill_16"/><linearGradient id="GradientFill_16-33" x1="168.82" y1="170.25" x2="158.18" y2="143.93" xlink:href="#GradientFill_16"/><linearGradient id="GradientFill_16-34" x1="189.37" y1="181.27" x2="179.49" y2="156.81" xlink:href="#GradientFill_16"/><linearGradient id="GradientFill_16-35" x1="210.26" y1="193.13" x2="200.38" y2="168.67" xlink:href="#GradientFill_16"/><linearGradient id="GradientFill_16-36" x1="231.14" y1="204.98" x2="221.27" y2="180.53" xlink:href="#GradientFill_16"/><linearGradient id="GradientFill_16-37" x1="252.04" y1="216.84" x2="242.16" y2="192.39" xlink:href="#GradientFill_16"/><linearGradient id="GradientFill_16-38" x1="272.93" y1="228.7" x2="263.05" y2="204.25" xlink:href="#GradientFill_16"/><linearGradient id="GradientFill_16-39" x1="293.82" y1="240.56" x2="283.94" y2="216.1" xlink:href="#GradientFill_16"/><linearGradient id="GradientFill_16-40" x1="314.71" y1="252.42" x2="304.83" y2="227.96" xlink:href="#GradientFill_16"/><linearGradient id="GradientFill_16-41" x1="335.6" y1="264.28" x2="325.72" y2="239.82" xlink:href="#GradientFill_16"/><linearGradient id="GradientFill_16-42" x1="356.49" y1="276.13" x2="346.61" y2="251.68" xlink:href="#GradientFill_16"/><linearGradient id="GradientFill_16-43" x1="377.38" y1="287.99" x2="367.5" y2="263.54" xlink:href="#GradientFill_16"/><linearGradient id="GradientFill_16-44" x1="398.27" y1="299.85" x2="388.39" y2="275.4" xlink:href="#GradientFill_16"/><linearGradient id="GradientFill_16-45" x1="419.16" y1="311.71" x2="409.28" y2="287.26" xlink:href="#GradientFill_16"/><linearGradient id="GradientFill_16-46" x1="440.05" y1="323.57" x2="430.17" y2="299.11" xlink:href="#GradientFill_16"/><linearGradient id="GradientFill_16-47" x1="460.94" y1="335.43" x2="451.06" y2="310.97" xlink:href="#GradientFill_16"/><linearGradient id="GradientFill_16-48" x1="482.17" y1="348.13" x2="471.53" y2="321.81" xlink:href="#GradientFill_16"/><linearGradient id="GradientFill_16-49" x1="147.92" y1="182.36" x2="137.28" y2="156.03" xlink:href="#GradientFill_16"/><linearGradient id="GradientFill_16-50" x1="168.47" y1="193.37" x2="158.59" y2="168.92" xlink:href="#GradientFill_16"/><linearGradient id="GradientFill_16-51" x1="189.36" y1="205.23" x2="179.48" y2="180.77" xlink:href="#GradientFill_16"/><linearGradient id="GradientFill_16-52" x1="210.25" y1="217.09" x2="200.37" y2="192.63" xlink:href="#GradientFill_16"/><linearGradient id="GradientFill_16-53" x1="231.14" y1="228.95" x2="221.26" y2="204.49" xlink:href="#GradientFill_16"/><linearGradient id="GradientFill_16-54" x1="252.03" y1="240.81" x2="242.15" y2="216.35" xlink:href="#GradientFill_16"/><linearGradient id="GradientFill_16-55" x1="272.92" y1="252.66" x2="263.04" y2="228.21" xlink:href="#GradientFill_16"/><linearGradient id="GradientFill_16-56" x1="293.81" y1="264.53" x2="283.93" y2="240.07" xlink:href="#GradientFill_16"/><linearGradient id="GradientFill_16-57" x1="314.7" y1="276.38" x2="304.82" y2="251.92" xlink:href="#GradientFill_16"/><linearGradient id="GradientFill_16-58" x1="335.59" y1="288.24" x2="325.71" y2="263.78" xlink:href="#GradientFill_16"/><linearGradient id="GradientFill_16-59" x1="356.48" y1="300.1" x2="346.6" y2="275.64" xlink:href="#GradientFill_16"/><linearGradient id="GradientFill_16-60" x1="377.37" y1="311.96" x2="367.49" y2="287.5" xlink:href="#GradientFill_16"/><linearGradient id="GradientFill_16-61" x1="398.26" y1="323.82" x2="388.38" y2="299.36" xlink:href="#GradientFill_16"/><linearGradient id="GradientFill_16-62" x1="419.15" y1="335.68" x2="409.27" y2="311.22" xlink:href="#GradientFill_16"/><linearGradient id="GradientFill_16-63" x1="440.04" y1="347.53" x2="430.16" y2="323.08" xlink:href="#GradientFill_16"/><linearGradient id="GradientFill_16-64" x1="461.27" y1="360.23" x2="450.64" y2="333.91" xlink:href="#GradientFill_16"/><linearGradient id="GradientFill_16-65" x1="127.02" y1="194.46" x2="116.38" y2="168.14" xlink:href="#GradientFill_16"/><linearGradient id="GradientFill_16-66" x1="147.57" y1="205.48" x2="137.69" y2="181.02" xlink:href="#GradientFill_16"/><linearGradient id="GradientFill_16-67" x1="168.46" y1="217.34" x2="158.58" y2="192.88" xlink:href="#GradientFill_16"/><linearGradient id="GradientFill_16-68" x1="189.35" y1="229.19" x2="179.47" y2="204.74" xlink:href="#GradientFill_16"/><linearGradient id="GradientFill_16-69" x1="210.24" y1="241.05" x2="200.36" y2="216.59" xlink:href="#GradientFill_16"/><linearGradient id="GradientFill_16-70" x1="231.13" y1="252.91" x2="221.25" y2="228.46" xlink:href="#GradientFill_16"/><linearGradient id="GradientFill_16-71" x1="252.02" y1="264.77" x2="242.14" y2="240.31" xlink:href="#GradientFill_16"/><linearGradient id="GradientFill_16-72" x1="272.91" y1="276.63" x2="263.03" y2="252.17" xlink:href="#GradientFill_16"/><linearGradient id="GradientFill_16-73" x1="293.8" y1="288.49" x2="283.92" y2="264.03" xlink:href="#GradientFill_16"/><linearGradient id="GradientFill_16-74" x1="314.69" y1="300.34" x2="304.81" y2="275.89" xlink:href="#GradientFill_16"/><linearGradient id="GradientFill_16-75" x1="335.58" y1="312.2" x2="325.7" y2="287.74" xlink:href="#GradientFill_16"/><linearGradient id="GradientFill_16-76" x1="356.47" y1="324.06" x2="346.59" y2="299.61" xlink:href="#GradientFill_16"/><linearGradient id="GradientFill_16-77" x1="377.36" y1="335.92" x2="367.48" y2="311.46" xlink:href="#GradientFill_16"/><linearGradient id="GradientFill_16-78" x1="398.25" y1="347.78" x2="388.37" y2="323.32" xlink:href="#GradientFill_16"/><linearGradient id="GradientFill_16-79" x1="419.14" y1="359.64" x2="409.26" y2="335.18" xlink:href="#GradientFill_16"/><linearGradient id="GradientFill_16-80" x1="440.37" y1="372.34" x2="429.74" y2="346.01" xlink:href="#GradientFill_16"/><linearGradient id="GradientFill_16-81" x1="106.12" y1="206.56" x2="95.48" y2="180.24" xlink:href="#GradientFill_16"/><linearGradient id="GradientFill_16-82" x1="126.67" y1="217.58" x2="116.79" y2="193.13" xlink:href="#GradientFill_16"/><linearGradient id="GradientFill_16-83" x1="147.56" y1="229.44" x2="137.68" y2="204.99" xlink:href="#GradientFill_16"/><linearGradient id="GradientFill_16-84" x1="168.45" y1="241.3" x2="158.57" y2="216.84" xlink:href="#GradientFill_16"/><linearGradient id="GradientFill_17" x1="536.07" y1="971.89" x2="239.17" y2="237.02" gradientUnits="userSpaceOnUse"><stop offset="0" stop-color="#d4d5d6"/><stop offset="0.76" stop-color="#fff"/><stop offset="1" stop-color="#fff"/></linearGradient><linearGradient id="GradientFill_16-85" x1="356.46" y1="348.03" x2="346.58" y2="323.57" xlink:href="#GradientFill_16"/><linearGradient id="GradientFill_16-86" x1="377.35" y1="359.88" x2="367.47" y2="335.43" xlink:href="#GradientFill_16"/><linearGradient id="GradientFill_16-87" x1="398.24" y1="371.74" x2="388.36" y2="347.29" xlink:href="#GradientFill_16"/><linearGradient id="GradientFill_16-88" x1="419.47" y1="384.44" x2="408.84" y2="358.12" xlink:href="#GradientFill_16"/></defs><title>05key board</title><path class="cls-1" d="M73.58,192.18l115.1-66.81a34.23,34.23,0,0,1,34.87-.17L548.12,309.29a12.27,12.27,0,0,1,0,21.33L430.89,397.18a34.22,34.22,0,0,1-34.64,0L73.67,213.44a12.27,12.27,0,0,1-.09-21.26Z"/><path class="cls-2" d="M72.48,188.07l115.1-66.81a34.23,34.23,0,0,1,34.87-.17L547,305.18a12.27,12.27,0,0,1,0,21.33L429.79,393.07a34.22,34.22,0,0,1-34.64,0L72.57,209.33a12.27,12.27,0,0,1-.09-21.26Z"/><path class="cls-1" d="M207.56,125q7.47,4.26,15,8.51a1.76,1.76,0,0,1,.9,1.53,1.66,1.66,0,0,1-.86,1.53c-7,4-7.72,4.6-14.94,8.81a4.29,4.29,0,0,1-4.39,0l-15-8.52a1.74,1.74,0,0,1-.9-1.52,1.7,1.7,0,0,1,.85-1.53c7-4.06,7.67-4.62,14.93-8.82A4.3,4.3,0,0,1,207.56,125Z"/><path class="cls-3" d="M207.56,122.86q7.47,4.26,15,8.51a1.78,1.78,0,0,1,.91,1.53,1.69,1.69,0,0,1-.87,1.53c-7,4-7.92,4.44-15.14,8.65a4.29,4.29,0,0,1-4.39,0l-15-8.48a1.75,1.75,0,0,1-.9-1.52,1.69,1.69,0,0,1,.85-1.53c7-4.06,7.86-4.5,15.12-8.7A4.3,4.3,0,0,1,207.56,122.86Z"/><path class="cls-1" d="M228.45,136.87q7.47,4.26,15,8.51a1.74,1.74,0,0,1,.91,1.52,1.72,1.72,0,0,1-.87,1.54c-7,4-7.72,4.6-14.94,8.81a4.29,4.29,0,0,1-4.39,0l-15-8.52a1.75,1.75,0,0,1-.9-1.52,1.68,1.68,0,0,1,.86-1.53c6.95-4.07,7.66-4.62,14.92-8.82A4.25,4.25,0,0,1,228.45,136.87Z"/><path class="cls-4" d="M228.45,134.72q7.47,4.26,15,8.51a1.75,1.75,0,0,1,.91,1.53,1.69,1.69,0,0,1-.87,1.53c-7,4-7.92,4.44-15.13,8.65a4.29,4.29,0,0,1-4.39,0l-15-8.48a1.75,1.75,0,0,1-.9-1.52,1.68,1.68,0,0,1,.86-1.53c6.95-4.06,7.85-4.5,15.11-8.7A4.3,4.3,0,0,1,228.45,134.72Z"/><path class="cls-1" d="M249.34,148.72q7.47,4.26,15,8.52a1.73,1.73,0,0,1,.91,1.52,1.69,1.69,0,0,1-.87,1.53c-7,4-7.72,4.6-14.94,8.81a4.27,4.27,0,0,1-4.39,0l-15-8.52a1.76,1.76,0,0,1-.9-1.53,1.68,1.68,0,0,1,.86-1.52c7-4.07,7.66-4.63,14.92-8.83A4.3,4.3,0,0,1,249.34,148.72Z"/><path class="cls-5" d="M249.34,146.58q7.47,4.26,15,8.51a1.75,1.75,0,0,1,.91,1.53,1.69,1.69,0,0,1-.87,1.53c-7,4-7.92,4.43-15.13,8.65a4.31,4.31,0,0,1-4.39,0l-15-8.48a1.76,1.76,0,0,1-.9-1.53,1.68,1.68,0,0,1,.86-1.52c7-4.07,7.86-4.5,15.11-8.7A4.3,4.3,0,0,1,249.34,146.58Z"/><path class="cls-1" d="M270.23,160.58q7.47,4.26,15,8.51a1.76,1.76,0,0,1,.91,1.53,1.69,1.69,0,0,1-.87,1.53c-7,4-7.72,4.6-14.94,8.81a4.29,4.29,0,0,1-4.39,0l-15-8.53a1.74,1.74,0,0,1-.9-1.52,1.69,1.69,0,0,1,.85-1.52c7-4.07,7.67-4.63,14.93-8.83A4.3,4.3,0,0,1,270.23,160.58Z"/><path class="cls-6" d="M270.23,158.44q7.47,4.26,15,8.51a1.75,1.75,0,0,1,.91,1.53,1.7,1.7,0,0,1-.87,1.53c-7,4-7.92,4.43-15.13,8.64a4.31,4.31,0,0,1-4.4,0l-15-8.49a1.74,1.74,0,0,1-.9-1.52,1.7,1.7,0,0,1,.86-1.53c6.95-4.06,7.85-4.49,15.11-8.69A4.3,4.3,0,0,1,270.23,158.44Z"/><path class="cls-1" d="M291.12,172.44q7.47,4.26,15,8.51a1.76,1.76,0,0,1,.91,1.53,1.69,1.69,0,0,1-.87,1.53c-7,4-7.72,4.6-14.94,8.81a4.29,4.29,0,0,1-4.39,0l-15-8.53a1.74,1.74,0,0,1-.9-1.52,1.7,1.7,0,0,1,.86-1.53c6.95-4.06,7.66-4.62,14.92-8.82A4.3,4.3,0,0,1,291.12,172.44Z"/><path class="cls-7" d="M291.12,170.3q7.47,4.26,15,8.51a1.74,1.74,0,0,1,.91,1.52,1.72,1.72,0,0,1-.87,1.54c-7,4-7.92,4.43-15.13,8.64a4.29,4.29,0,0,1-4.39,0l-15-8.49a1.74,1.74,0,0,1-.9-1.52,1.7,1.7,0,0,1,.86-1.53c6.95-4.06,7.85-4.5,15.11-8.7A4.32,4.32,0,0,1,291.12,170.3Z"/><path class="cls-1" d="M312,184.3q7.47,4.26,15,8.51a1.75,1.75,0,0,1,.91,1.53,1.69,1.69,0,0,1-.87,1.53c-7,4-7.72,4.6-14.94,8.81a4.27,4.27,0,0,1-4.38,0l-15-8.53a1.74,1.74,0,0,1-.9-1.52,1.69,1.69,0,0,1,.86-1.53c7-4.06,7.66-4.62,14.92-8.82A4.3,4.3,0,0,1,312,184.3Z"/><path class="cls-8" d="M312,182.15q7.46,4.26,15,8.52a1.74,1.74,0,0,1,.91,1.52,1.72,1.72,0,0,1-.87,1.54c-7,4-7.92,4.43-15.13,8.64a4.31,4.31,0,0,1-4.39,0l-15-8.49a1.74,1.74,0,0,1-.9-1.52,1.69,1.69,0,0,1,.86-1.53c7-4.06,7.86-4.5,15.11-8.7A4.31,4.31,0,0,1,312,182.15Z"/><path class="cls-1" d="M332.9,196.16q7.47,4.26,15,8.51a1.75,1.75,0,0,1,.91,1.53,1.7,1.7,0,0,1-.87,1.53c-7,4-7.72,4.6-14.93,8.81a4.29,4.29,0,0,1-4.39,0l-15-8.52a1.73,1.73,0,0,1-.91-1.52,1.69,1.69,0,0,1,.86-1.53c6.95-4.07,7.66-4.62,14.92-8.82A4.3,4.3,0,0,1,332.9,196.16Z"/><path class="cls-9" d="M332.91,194q7.45,4.26,15,8.52a1.72,1.72,0,0,1,.91,1.52,1.69,1.69,0,0,1-.87,1.53c-7,4-7.92,4.44-15.13,8.65a4.29,4.29,0,0,1-4.39,0c-5-2.84-10-5.64-15-8.48a1.74,1.74,0,0,1-.91-1.52,1.68,1.68,0,0,1,.86-1.53c6.95-4.06,7.86-4.5,15.12-8.7A4.3,4.3,0,0,1,332.91,194Z"/><path class="cls-1" d="M353.79,208q7.47,4.26,15,8.51a1.74,1.74,0,0,1,.91,1.52,1.72,1.72,0,0,1-.87,1.54c-7,4-7.72,4.59-14.93,8.81a4.29,4.29,0,0,1-4.39,0l-15-8.52a1.74,1.74,0,0,1-.91-1.52,1.68,1.68,0,0,1,.86-1.53c6.95-4.07,7.66-4.62,14.92-8.83A4.32,4.32,0,0,1,353.79,208Z"/><path class="cls-10" d="M353.8,205.87q7.45,4.26,15,8.51a1.75,1.75,0,0,1,.91,1.53,1.69,1.69,0,0,1-.87,1.53c-7,4-7.92,4.44-15.13,8.65a4.29,4.29,0,0,1-4.39,0l-15-8.48a1.75,1.75,0,0,1-.9-1.52,1.7,1.7,0,0,1,.86-1.53c6.95-4.06,7.86-4.5,15.12-8.7A4.3,4.3,0,0,1,353.8,205.87Z"/><path class="cls-1" d="M374.68,219.88q7.47,4.25,15,8.51a1.74,1.74,0,0,1,.91,1.52,1.72,1.72,0,0,1-.87,1.54c-7,4-7.72,4.59-14.94,8.81a4.27,4.27,0,0,1-4.38,0l-15-8.52a1.75,1.75,0,0,1-.91-1.53,1.68,1.68,0,0,1,.86-1.52c6.95-4.07,7.66-4.62,14.92-8.83A4.27,4.27,0,0,1,374.68,219.88Z"/><path class="cls-11" d="M374.69,217.73q7.46,4.26,15,8.51a1.75,1.75,0,0,1,.91,1.53,1.69,1.69,0,0,1-.87,1.53c-7,4-7.92,4.43-15.13,8.65a4.29,4.29,0,0,1-4.39,0l-15-8.48a1.75,1.75,0,0,1-.9-1.52,1.68,1.68,0,0,1,.86-1.53c6.95-4.07,7.86-4.5,15.11-8.7A4.31,4.31,0,0,1,374.69,217.73Z"/><path class="cls-1" d="M395.58,231.73q7.46,4.26,15,8.52a1.73,1.73,0,0,1,.91,1.52,1.69,1.69,0,0,1-.87,1.53c-7,4-7.72,4.6-14.93,8.82a4.29,4.29,0,0,1-4.39,0l-15-8.52a1.75,1.75,0,0,1-.91-1.53,1.68,1.68,0,0,1,.86-1.52c7-4.07,7.66-4.63,14.92-8.83A4.31,4.31,0,0,1,395.58,231.73Z"/><path class="cls-12" d="M395.58,229.59q7.46,4.26,15,8.51a1.75,1.75,0,0,1,.91,1.53,1.69,1.69,0,0,1-.87,1.53c-7,4-7.92,4.43-15.13,8.65a4.31,4.31,0,0,1-4.39,0l-15-8.48a1.75,1.75,0,0,1-.91-1.53,1.68,1.68,0,0,1,.86-1.52c6.95-4.07,7.86-4.5,15.12-8.7A4.3,4.3,0,0,1,395.58,229.59Z"/><path class="cls-1" d="M416.46,243.59q7.47,4.26,15,8.51a1.76,1.76,0,0,1,.91,1.53,1.69,1.69,0,0,1-.87,1.53c-7,4-7.72,4.6-14.93,8.81a4.29,4.29,0,0,1-4.39,0l-15-8.53a1.73,1.73,0,0,1-.91-1.52,1.7,1.7,0,0,1,.86-1.53c6.95-4.06,7.66-4.62,14.93-8.82A4.28,4.28,0,0,1,416.46,243.59Z"/><path class="cls-13" d="M416.47,241.45q7.45,4.26,15,8.51a1.75,1.75,0,0,1,.91,1.53,1.71,1.71,0,0,1-.87,1.53c-7,4-7.92,4.43-15.13,8.64a4.29,4.29,0,0,1-4.39,0l-15-8.49a1.76,1.76,0,0,1,0-3.05c6.95-4.06,7.86-4.49,15.12-8.69A4.25,4.25,0,0,1,416.47,241.45Z"/><path class="cls-1" d="M437.36,255.45q7.45,4.26,15,8.51a1.75,1.75,0,0,1,.91,1.53,1.69,1.69,0,0,1-.87,1.53c-7,4-7.72,4.6-14.93,8.81a4.29,4.29,0,0,1-4.39,0l-15-8.53a1.73,1.73,0,0,1-.91-1.52,1.69,1.69,0,0,1,.86-1.53c6.95-4.06,7.66-4.62,14.92-8.82A4.31,4.31,0,0,1,437.36,255.45Z"/><path class="cls-14" d="M437.36,253.31q7.45,4.24,15,8.51a1.77,1.77,0,0,1,.05,3.06c-7,4-7.93,4.43-15.14,8.64a4.31,4.31,0,0,1-4.39,0l-15-8.49a1.73,1.73,0,0,1-.91-1.52,1.71,1.71,0,0,1,.86-1.53c6.95-4.06,7.86-4.5,15.12-8.7A4.27,4.27,0,0,1,437.36,253.31Z"/><path class="cls-1" d="M458.25,267.31q7.46,4.26,15,8.51a1.75,1.75,0,0,1,.91,1.53,1.68,1.68,0,0,1-.86,1.53c-7,4-7.73,4.6-14.94,8.81a4.29,4.29,0,0,1-4.39,0c-5-2.83-10-5.68-15-8.52a1.73,1.73,0,0,1-.91-1.52,1.69,1.69,0,0,1,.86-1.53c6.95-4.06,7.66-4.62,14.93-8.82A4.3,4.3,0,0,1,458.25,267.31Z"/><path class="cls-15" d="M458.25,265.16q7.46,4.26,15,8.52a1.73,1.73,0,0,1,.91,1.52,1.68,1.68,0,0,1-.86,1.53c-7,4-7.93,4.44-15.14,8.65a4.31,4.31,0,0,1-4.39,0l-15-8.49a1.74,1.74,0,0,1-.91-1.52,1.71,1.71,0,0,1,.86-1.53c6.95-4.06,7.86-4.5,15.12-8.7A4.3,4.3,0,0,1,458.25,265.16Z"/><path class="cls-1" d="M479.13,279.17q7.47,4.26,15,8.51a1.75,1.75,0,0,1,.91,1.53,1.69,1.69,0,0,1-.87,1.53c-7,4-7.72,4.6-14.93,8.81a4.29,4.29,0,0,1-4.39,0l-15-8.52a1.73,1.73,0,0,1-.91-1.52,1.69,1.69,0,0,1,.86-1.53c6.95-4.06,7.66-4.62,14.92-8.82A4.3,4.3,0,0,1,479.13,279.17Z"/><path class="cls-16" d="M479.14,277q7.46,4.26,15,8.52a1.72,1.72,0,0,1,.91,1.52,1.7,1.7,0,0,1-.86,1.53c-7,4-7.93,4.44-15.14,8.65a4.29,4.29,0,0,1-4.39,0l-15-8.48a1.74,1.74,0,0,1-.91-1.52,1.71,1.71,0,0,1,.86-1.53c6.95-4.06,7.86-4.5,15.12-8.7A4.3,4.3,0,0,1,479.14,277Z"/><path class="cls-1" d="M500,291q7.46,4.25,15,8.51a1.73,1.73,0,0,1,.91,1.52,1.7,1.7,0,0,1-.87,1.54c-7,4-7.72,4.59-14.93,8.81a4.29,4.29,0,0,1-4.39,0l-15-8.52a1.74,1.74,0,0,1-.91-1.52,1.7,1.7,0,0,1,.86-1.53c6.95-4.07,7.66-4.62,14.92-8.83A4.29,4.29,0,0,1,500,291Z"/><path class="cls-17" d="M500,288.88q7.46,4.26,15,8.51a1.75,1.75,0,0,1,.91,1.53,1.68,1.68,0,0,1-.86,1.53c-7,4-7.93,4.44-15.14,8.65a4.29,4.29,0,0,1-4.39,0l-15-8.48a1.74,1.74,0,0,1-.91-1.52,1.7,1.7,0,0,1,.86-1.53c7-4.07,7.86-4.5,15.12-8.7A4.3,4.3,0,0,1,500,288.88Z"/><path class="cls-1" d="M520.92,302.89q7.46,4.26,15,8.51a1.75,1.75,0,0,1,.91,1.53,1.71,1.71,0,0,1-.87,1.53c-7,4-7.72,4.59-14.93,8.81a4.29,4.29,0,0,1-4.39,0l-15-8.52a1.74,1.74,0,0,1-.91-1.52,1.68,1.68,0,0,1,.86-1.53c6.95-4.07,7.66-4.62,14.92-8.82A4.31,4.31,0,0,1,520.92,302.89Z"/><path class="cls-18" d="M520.92,300.74q7.46,4.26,15,8.51a1.75,1.75,0,0,1,.91,1.53,1.7,1.7,0,0,1-.86,1.53c-7,4-7.93,4.43-15.14,8.65a4.31,4.31,0,0,1-4.39,0l-15-8.48a1.75,1.75,0,0,1-.91-1.53,1.7,1.7,0,0,1,.86-1.52c6.95-4.07,7.86-4.5,15.12-8.7A4.3,4.3,0,0,1,520.92,300.74Z"/><path class="cls-1" d="M186.66,137.11q7.47,4.26,15,8.52a1.75,1.75,0,0,1,.91,1.52,1.69,1.69,0,0,1-.87,1.53c-7,4-7.72,4.6-14.94,8.82a4.31,4.31,0,0,1-4.39,0l-15-8.52a1.75,1.75,0,0,1-.9-1.52,1.69,1.69,0,0,1,.85-1.53c7-4.07,7.67-4.63,14.93-8.83A4.3,4.3,0,0,1,186.66,137.11Z"/><path class="cls-19" d="M186.66,135q7.47,4.26,15,8.51a1.75,1.75,0,0,1,.91,1.53,1.7,1.7,0,0,1-.87,1.53c-7,4-7.92,4.43-15.14,8.65a4.31,4.31,0,0,1-4.39,0l-15-8.49a1.74,1.74,0,0,1-.9-1.52,1.69,1.69,0,0,1,.85-1.52c7-4.07,7.86-4.5,15.12-8.7A4.3,4.3,0,0,1,186.66,135Z"/><path class="cls-1" d="M207.55,149q7.47,4.26,15,8.51a1.76,1.76,0,0,1,.91,1.53,1.69,1.69,0,0,1-.87,1.53c-7,4-7.72,4.6-14.94,8.81a4.27,4.27,0,0,1-4.38,0q-7.5-4.26-15-8.52a1.77,1.77,0,0,1-.9-1.53,1.7,1.7,0,0,1,.86-1.53c6.95-4.06,7.66-4.62,14.92-8.82A4.3,4.3,0,0,1,207.55,149Z"/><path class="cls-20" d="M207.56,146.83q7.45,4.26,15,8.51a1.74,1.74,0,0,1,.91,1.52,1.72,1.72,0,0,1-.87,1.54c-7,4-7.92,4.43-15.13,8.64a4.29,4.29,0,0,1-4.39,0l-15-8.49a1.74,1.74,0,0,1-.9-1.52,1.7,1.7,0,0,1,.86-1.53c6.95-4.06,7.85-4.5,15.11-8.7A4.34,4.34,0,0,1,207.56,146.83Z"/><path class="cls-1" d="M228.44,160.83q7.47,4.26,15,8.51a1.75,1.75,0,0,1,.91,1.53,1.69,1.69,0,0,1-.87,1.53c-7,4-7.72,4.6-14.94,8.81a4.27,4.27,0,0,1-4.38,0l-15-8.52a1.73,1.73,0,0,1-.91-1.52,1.69,1.69,0,0,1,.86-1.53c7-4.06,7.66-4.62,14.92-8.82A4.3,4.3,0,0,1,228.44,160.83Z"/><path class="cls-21" d="M228.44,158.68q7.47,4.26,15,8.52a1.73,1.73,0,0,1,.91,1.52,1.69,1.69,0,0,1-.87,1.53c-7,4-7.92,4.44-15.13,8.65a4.32,4.32,0,0,1-4.39,0l-15-8.49a1.74,1.74,0,0,1-.9-1.52,1.69,1.69,0,0,1,.86-1.53c7-4.06,7.86-4.5,15.12-8.7A4.28,4.28,0,0,1,228.44,158.68Z"/><path class="cls-1" d="M249.33,172.69q7.47,4.26,15,8.51a1.77,1.77,0,0,1,.91,1.53,1.7,1.7,0,0,1-.87,1.53c-7,4-7.72,4.6-14.93,8.81a4.31,4.31,0,0,1-4.4,0l-15-8.52a1.74,1.74,0,0,1-.9-1.52,1.69,1.69,0,0,1,.86-1.53c6.95-4.07,7.66-4.62,14.92-8.82A4.3,4.3,0,0,1,249.33,172.69Z"/><path class="cls-22" d="M249.33,170.54q7.47,4.26,15,8.52a1.72,1.72,0,0,1,.91,1.52,1.69,1.69,0,0,1-.87,1.53c-7,4-7.92,4.44-15.14,8.65a4.27,4.27,0,0,1-4.38,0l-15-8.48a1.75,1.75,0,0,1-.9-1.52,1.68,1.68,0,0,1,.86-1.53c6.95-4.06,7.85-4.5,15.11-8.7A4.3,4.3,0,0,1,249.33,170.54Z"/><path class="cls-1" d="M270.22,184.55q7.47,4.26,15,8.51a1.75,1.75,0,0,1,.91,1.53,1.71,1.71,0,0,1-.87,1.53c-7,4-7.72,4.59-14.94,8.81a4.27,4.27,0,0,1-4.38,0l-15-8.52a1.74,1.74,0,0,1-.91-1.52,1.68,1.68,0,0,1,.86-1.53c7-4.07,7.66-4.62,14.92-8.83A4.32,4.32,0,0,1,270.22,184.55Z"/><path class="cls-23" d="M270.23,182.4q7.45,4.26,15,8.51a1.75,1.75,0,0,1,.91,1.53,1.69,1.69,0,0,1-.87,1.53c-7,4-7.92,4.43-15.13,8.65a4.29,4.29,0,0,1-4.39,0l-15-8.48a1.75,1.75,0,0,1-.9-1.52,1.68,1.68,0,0,1,.86-1.53c7-4.06,7.85-4.5,15.11-8.7A4.31,4.31,0,0,1,270.23,182.4Z"/><path class="cls-1" d="M291.11,196.41q7.47,4.25,15,8.51a1.75,1.75,0,0,1,.91,1.53,1.71,1.71,0,0,1-.87,1.53c-7,4-7.72,4.59-14.93,8.81a4.31,4.31,0,0,1-4.4,0l-15-8.52a1.75,1.75,0,0,1-.91-1.53,1.68,1.68,0,0,1,.86-1.52c6.95-4.07,7.66-4.62,14.92-8.83A4.27,4.27,0,0,1,291.11,196.41Z"/><path class="cls-24" d="M291.12,194.26q7.45,4.26,15,8.51a1.75,1.75,0,0,1,.91,1.53,1.69,1.69,0,0,1-.87,1.53c-7,4-7.92,4.43-15.13,8.65a4.29,4.29,0,0,1-4.39,0l-15-8.48a1.75,1.75,0,0,1-.9-1.52,1.68,1.68,0,0,1,.86-1.53c6.95-4.07,7.86-4.5,15.12-8.7A4.3,4.3,0,0,1,291.12,194.26Z"/><path class="cls-1" d="M312,208.26q7.47,4.26,15,8.52a1.73,1.73,0,0,1,.91,1.52,1.69,1.69,0,0,1-.87,1.53c-7,4-7.72,4.6-14.93,8.81a4.29,4.29,0,0,1-4.39,0l-15-8.52a1.76,1.76,0,0,1-.91-1.53,1.68,1.68,0,0,1,.86-1.52c6.95-4.07,7.66-4.63,14.92-8.83A4.3,4.3,0,0,1,312,208.26Z"/><path class="cls-25" d="M312,206.12q7.46,4.26,15,8.51a1.75,1.75,0,0,1,.91,1.53,1.7,1.7,0,0,1-.87,1.53c-7,4-7.92,4.43-15.13,8.65a4.31,4.31,0,0,1-4.39,0l-15-8.49a1.76,1.76,0,0,1-.05-3.05c6.95-4.06,7.86-4.49,15.11-8.69A4.31,4.31,0,0,1,312,206.12Z"/><path class="cls-1" d="M332.9,220.12q7.46,4.26,15,8.51a1.76,1.76,0,0,1,.91,1.53,1.67,1.67,0,0,1-.87,1.53c-7,4-7.72,4.6-14.93,8.81a4.29,4.29,0,0,1-4.39,0l-15-8.53a1.73,1.73,0,0,1-.91-1.52,1.7,1.7,0,0,1,.86-1.53c7-4.06,7.66-4.62,14.92-8.82A4.31,4.31,0,0,1,332.9,220.12Z"/><path class="cls-26" d="M332.9,218q7.46,4.26,15,8.51a1.75,1.75,0,0,1,.91,1.53,1.7,1.7,0,0,1-.86,1.53c-7,4-7.93,4.43-15.14,8.64a4.29,4.29,0,0,1-4.39,0l-15-8.49a1.76,1.76,0,0,1-.05-3.05c7-4.06,7.86-4.49,15.12-8.69A4.3,4.3,0,0,1,332.9,218Z"/><path class="cls-1" d="M353.78,232q7.47,4.26,15,8.51a1.75,1.75,0,0,1,.91,1.53,1.69,1.69,0,0,1-.87,1.53c-7,4-7.72,4.6-14.93,8.81a4.29,4.29,0,0,1-4.39,0l-15-8.53a1.73,1.73,0,0,1-.91-1.52,1.69,1.69,0,0,1,.86-1.53c6.95-4.06,7.66-4.62,14.92-8.82A4.3,4.3,0,0,1,353.78,232Z"/><path class="cls-27" d="M353.79,229.84q7.45,4.24,15,8.51a1.76,1.76,0,0,1,0,3.06c-7,4-7.92,4.43-15.13,8.64a4.31,4.31,0,0,1-4.39,0l-15-8.49a1.74,1.74,0,0,1-.9-1.52,1.71,1.71,0,0,1,.86-1.53c6.95-4.06,7.86-4.5,15.12-8.7A4.27,4.27,0,0,1,353.79,229.84Z"/><path class="cls-1" d="M374.68,243.84q7.45,4.26,15,8.51a1.75,1.75,0,0,1,.91,1.53,1.69,1.69,0,0,1-.87,1.53c-7,4-7.72,4.6-14.93,8.81a4.29,4.29,0,0,1-4.39,0c-5-2.83-10-5.68-15-8.52a1.73,1.73,0,0,1-.91-1.52,1.69,1.69,0,0,1,.86-1.53c6.95-4.06,7.66-4.62,14.93-8.82A4.3,4.3,0,0,1,374.68,243.84Z"/><path class="cls-28" d="M374.68,241.69q7.45,4.26,15,8.52a1.73,1.73,0,0,1,.91,1.52,1.7,1.7,0,0,1-.86,1.53c-7,4-7.93,4.44-15.14,8.65a4.31,4.31,0,0,1-4.39,0l-15-8.49a1.74,1.74,0,0,1-.91-1.52,1.71,1.71,0,0,1,.86-1.53c6.95-4.06,7.86-4.5,15.12-8.7A4.3,4.3,0,0,1,374.68,241.69Z"/><path class="cls-1" d="M395.57,255.7q7.46,4.26,15,8.51a1.75,1.75,0,0,1,.91,1.53,1.7,1.7,0,0,1-.87,1.53c-7,4-7.72,4.6-14.93,8.81a4.29,4.29,0,0,1-4.39,0l-15-8.52a1.74,1.74,0,0,1-.91-1.52,1.69,1.69,0,0,1,.86-1.53c6.95-4.07,7.67-4.62,14.92-8.82A4.27,4.27,0,0,1,395.57,255.7Z"/><path class="cls-29" d="M395.57,253.55q7.46,4.26,15,8.51a1.75,1.75,0,0,1,.91,1.53,1.7,1.7,0,0,1-.86,1.53c-7,4-7.93,4.43-15.14,8.65a4.29,4.29,0,0,1-4.39,0l-15-8.48a1.74,1.74,0,0,1-.91-1.52,1.7,1.7,0,0,1,.86-1.53c6.95-4.06,7.86-4.5,15.12-8.7A4.3,4.3,0,0,1,395.57,253.55Z"/><path class="cls-1" d="M416.46,267.56q7.46,4.26,15,8.51a1.73,1.73,0,0,1,.91,1.52,1.7,1.7,0,0,1-.87,1.54c-7,4-7.72,4.59-14.93,8.81a4.29,4.29,0,0,1-4.39,0l-15-8.52a1.74,1.74,0,0,1-.91-1.52,1.68,1.68,0,0,1,.86-1.53c7-4.07,7.66-4.62,14.93-8.83A4.27,4.27,0,0,1,416.46,267.56Z"/><path class="cls-30" d="M416.46,265.41q7.46,4.26,15,8.51a1.75,1.75,0,0,1,.91,1.53,1.68,1.68,0,0,1-.86,1.53c-7,4-7.93,4.44-15.14,8.65a4.29,4.29,0,0,1-4.39,0l-15-8.48a1.74,1.74,0,0,1-.91-1.52,1.7,1.7,0,0,1,.86-1.53c7-4.06,7.86-4.5,15.12-8.7A4.3,4.3,0,0,1,416.46,265.41Z"/><path class="cls-1" d="M437.35,279.41q7.45,4.26,15,8.52a1.73,1.73,0,0,1,.91,1.52,1.68,1.68,0,0,1-.86,1.53c-7,4-7.72,4.6-14.94,8.82a4.29,4.29,0,0,1-4.39,0l-15-8.52a1.75,1.75,0,0,1-.91-1.53,1.7,1.7,0,0,1,.86-1.52c6.95-4.07,7.67-4.63,14.93-8.83A4.3,4.3,0,0,1,437.35,279.41Z"/><path class="cls-31" d="M437.35,277.27q7.45,4.26,15,8.51a1.76,1.76,0,0,1,.9,1.53,1.68,1.68,0,0,1-.86,1.53c-7,4-7.92,4.43-15.14,8.65a4.31,4.31,0,0,1-4.39,0l-15-8.49a1.74,1.74,0,0,1-.91-1.52,1.7,1.7,0,0,1,.86-1.52c7-4.07,7.86-4.5,15.12-8.7A4.3,4.3,0,0,1,437.35,277.27Z"/><path class="cls-1" d="M458.24,291.27q7.45,4.26,15,8.51a1.76,1.76,0,0,1,.91,1.53,1.68,1.68,0,0,1-.86,1.53c-7,4-7.73,4.6-14.94,8.81a4.27,4.27,0,0,1-4.39,0l-15-8.52a1.76,1.76,0,0,1-.91-1.53,1.7,1.7,0,0,1,.86-1.52c6.95-4.07,7.67-4.63,14.92-8.83A4.31,4.31,0,0,1,458.24,291.27Z"/><path class="cls-32" d="M458.24,289.13q7.45,4.26,15,8.51a1.75,1.75,0,0,1,.91,1.53,1.68,1.68,0,0,1-.86,1.53c-7,4-7.93,4.43-15.14,8.65a4.31,4.31,0,0,1-4.39,0l-15-8.48a1.76,1.76,0,0,1-.91-1.53,1.72,1.72,0,0,1,.86-1.53c6.95-4.06,7.86-4.49,15.12-8.69A4.3,4.3,0,0,1,458.24,289.13Z"/><path class="cls-1" d="M479.13,303.13q7.46,4.26,15,8.51a1.75,1.75,0,0,1,.91,1.53,1.67,1.67,0,0,1-.87,1.53c-7,4-7.72,4.6-14.93,8.81a4.29,4.29,0,0,1-4.39,0l-15-8.53a1.73,1.73,0,0,1-.91-1.52,1.71,1.71,0,0,1,.86-1.53c6.95-4.06,7.67-4.62,14.93-8.82A4.3,4.3,0,0,1,479.13,303.13Z"/><path class="cls-33" d="M479.13,301q7.46,4.26,15,8.51A1.73,1.73,0,0,1,495,311a1.68,1.68,0,0,1-.86,1.53c-7,4-7.93,4.44-15.14,8.65a4.31,4.31,0,0,1-4.39,0l-15-8.49a1.73,1.73,0,0,1-.91-1.52,1.71,1.71,0,0,1,.86-1.53c6.95-4.06,7.86-4.5,15.12-8.7A4.32,4.32,0,0,1,479.13,301Z"/><path class="cls-1" d="M500,315q7.46,4.26,15,8.51a1.75,1.75,0,0,1,.91,1.53,1.69,1.69,0,0,1-.87,1.53c-7,4-7.72,4.6-14.93,8.81a4.29,4.29,0,0,1-4.39,0l-15-8.53a1.73,1.73,0,0,1-.91-1.52,1.7,1.7,0,0,1,.86-1.53c7-4.06,7.66-4.62,14.93-8.82A4.3,4.3,0,0,1,500,315Z"/><path class="cls-34" d="M500,312.84q7.46,4.26,15,8.52a1.73,1.73,0,0,1,.91,1.52,1.7,1.7,0,0,1-.86,1.53c-7,4-7.93,4.44-15.14,8.65a4.29,4.29,0,0,1-4.39,0l-15-8.48a1.73,1.73,0,0,1-.91-1.52,1.71,1.71,0,0,1,.86-1.53c7-4.06,7.86-4.5,15.12-8.7A4.3,4.3,0,0,1,500,312.84Z"/><path class="cls-1" d="M165.76,149.22q7.47,4.26,15,8.51a1.77,1.77,0,0,1,.91,1.53,1.69,1.69,0,0,1-.87,1.53c-7,4-7.72,4.6-14.94,8.81a4.27,4.27,0,0,1-4.39,0c-5-2.83-10-5.68-15-8.52a1.74,1.74,0,0,1-.9-1.52,1.7,1.7,0,0,1,.85-1.53c7-4.06,7.67-4.62,14.93-8.82A4.3,4.3,0,0,1,165.76,149.22Z"/><path class="cls-35" d="M165.76,147.07q7.47,4.26,15,8.51a1.76,1.76,0,0,1,.91,1.53,1.69,1.69,0,0,1-.87,1.53c-7,4-7.92,4.44-15.14,8.65a4.27,4.27,0,0,1-4.38,0l-15-8.48a1.75,1.75,0,0,1-.9-1.52,1.68,1.68,0,0,1,.86-1.53c6.95-4.06,7.85-4.5,15.11-8.7A4.3,4.3,0,0,1,165.76,147.07Z"/><path class="cls-1" d="M186.65,161.08q7.47,4.26,15,8.51a1.75,1.75,0,0,1,.91,1.53,1.71,1.71,0,0,1-.87,1.53c-7,4-7.72,4.59-14.93,8.81a4.29,4.29,0,0,1-4.39,0l-15-8.52a1.75,1.75,0,0,1-.9-1.52,1.68,1.68,0,0,1,.86-1.53c7-4.07,7.66-4.62,14.92-8.83A4.32,4.32,0,0,1,186.65,161.08Z"/><path class="cls-36" d="M186.66,158.93q7.46,4.26,15,8.51a1.75,1.75,0,0,1,.91,1.53,1.69,1.69,0,0,1-.87,1.53c-7,4-7.92,4.44-15.13,8.65a4.29,4.29,0,0,1-4.39,0l-15-8.48a1.75,1.75,0,0,1-.9-1.52,1.7,1.7,0,0,1,.86-1.53c7-4.06,7.86-4.5,15.12-8.7A4.3,4.3,0,0,1,186.66,158.93Z"/><path class="cls-1" d="M207.54,172.93q7.47,4.26,15,8.52a1.73,1.73,0,0,1,.91,1.52,1.69,1.69,0,0,1-.87,1.53c-7,4-7.72,4.6-14.93,8.82a4.29,4.29,0,0,1-4.39,0l-15-8.52a1.76,1.76,0,0,1-.91-1.53,1.68,1.68,0,0,1,.86-1.52c6.95-4.07,7.66-4.63,14.92-8.83A4.3,4.3,0,0,1,207.54,172.93Z"/><path class="cls-37" d="M207.55,170.79q7.45,4.26,15,8.51a1.75,1.75,0,0,1,.91,1.53,1.7,1.7,0,0,1-.86,1.53c-7,4-7.93,4.43-15.14,8.65a4.31,4.31,0,0,1-4.39,0l-15-8.49a1.73,1.73,0,0,1-.9-1.52,1.7,1.7,0,0,1,.86-1.53c6.95-4.06,7.86-4.49,15.12-8.69A4.3,4.3,0,0,1,207.55,170.79Z"/><path class="cls-1" d="M228.43,184.79q7.47,4.26,15,8.52a1.73,1.73,0,0,1,.91,1.52,1.69,1.69,0,0,1-.87,1.53c-7,4-7.72,4.6-14.94,8.81a4.29,4.29,0,0,1-4.39,0l-15-8.52a1.76,1.76,0,0,1-.91-1.53,1.68,1.68,0,0,1,.86-1.52c7-4.07,7.66-4.63,14.92-8.83A4.3,4.3,0,0,1,228.43,184.79Z"/><path class="cls-38" d="M228.44,182.65q7.45,4.26,15,8.51a1.75,1.75,0,0,1,.91,1.53,1.7,1.7,0,0,1-.87,1.53c-7,4-7.92,4.43-15.13,8.65a4.31,4.31,0,0,1-4.39,0l-15-8.49a1.74,1.74,0,0,1-.9-1.52,1.68,1.68,0,0,1,.86-1.52c6.95-4.07,7.85-4.5,15.11-8.7A4.31,4.31,0,0,1,228.44,182.65Z"/><path class="cls-1" d="M249.32,196.65q7.47,4.26,15,8.51a1.75,1.75,0,0,1,.91,1.53,1.69,1.69,0,0,1-.87,1.53c-7,4-7.72,4.6-14.93,8.81a4.29,4.29,0,0,1-4.39,0l-15-8.53a1.73,1.73,0,0,1-.91-1.52,1.68,1.68,0,0,1,.86-1.52c6.95-4.07,7.66-4.63,14.92-8.83A4.3,4.3,0,0,1,249.32,196.65Z"/><path class="cls-39" d="M249.33,194.51q7.46,4.26,15,8.51a1.75,1.75,0,0,1,.91,1.53,1.7,1.7,0,0,1-.87,1.53c-7,4-7.92,4.43-15.13,8.64a4.29,4.29,0,0,1-4.39,0l-15-8.49a1.74,1.74,0,0,1-.9-1.52,1.72,1.72,0,0,1,.86-1.53c6.95-4.06,7.86-4.5,15.12-8.69A4.25,4.25,0,0,1,249.33,194.51Z"/><path class="cls-1" d="M270.22,208.51q7.45,4.26,15,8.51a1.75,1.75,0,0,1,.91,1.53,1.69,1.69,0,0,1-.87,1.53c-7,4-7.72,4.6-14.93,8.81a4.29,4.29,0,0,1-4.39,0l-15-8.53a1.73,1.73,0,0,1-.91-1.52,1.69,1.69,0,0,1,.86-1.53c7-4.06,7.66-4.62,14.92-8.82A4.31,4.31,0,0,1,270.22,208.51Z"/><path class="cls-40" d="M270.22,206.37q7.45,4.24,15,8.51a1.77,1.77,0,0,1,0,3.06c-7,4-7.93,4.43-15.14,8.64a4.29,4.29,0,0,1-4.39,0l-15-8.49a1.76,1.76,0,0,1-.05-3.05c7-4.06,7.86-4.5,15.12-8.7A4.27,4.27,0,0,1,270.22,206.37Z"/><path class="cls-1" d="M291.11,220.37q7.45,4.26,15,8.51a1.75,1.75,0,0,1,.91,1.53,1.7,1.7,0,0,1-.87,1.53c-7,4-7.72,4.59-14.93,8.81a4.29,4.29,0,0,1-4.39,0l-15-8.52a1.73,1.73,0,0,1-.91-1.52,1.69,1.69,0,0,1,.86-1.53c6.95-4.06,7.66-4.62,14.93-8.82A4.3,4.3,0,0,1,291.11,220.37Z"/><path class="cls-41" d="M291.11,218.22q7.45,4.26,15,8.52a1.72,1.72,0,0,1,.91,1.52,1.69,1.69,0,0,1-.87,1.53c-7,4-7.92,4.44-15.13,8.65a4.29,4.29,0,0,1-4.39,0l-15-8.48a1.75,1.75,0,0,1-.9-1.52,1.7,1.7,0,0,1,.86-1.53c6.95-4.06,7.86-4.5,15.12-8.7A4.3,4.3,0,0,1,291.11,218.22Z"/><path class="cls-1" d="M312,232.23q7.46,4.26,15,8.51a1.75,1.75,0,0,1,.91,1.53,1.7,1.7,0,0,1-.87,1.53c-7,4-7.72,4.6-14.93,8.81a4.29,4.29,0,0,1-4.39,0l-15-8.52a1.74,1.74,0,0,1-.91-1.52,1.69,1.69,0,0,1,.86-1.53c6.95-4.07,7.66-4.62,14.93-8.82A4.25,4.25,0,0,1,312,232.23Z"/><path class="cls-42" d="M312,230.08q7.46,4.26,15,8.51a1.75,1.75,0,0,1,.91,1.53,1.7,1.7,0,0,1-.86,1.53c-7,4-7.93,4.44-15.14,8.65a4.29,4.29,0,0,1-4.39,0l-15-8.48a1.74,1.74,0,0,1-.91-1.52,1.7,1.7,0,0,1,.86-1.53c6.95-4.06,7.86-4.5,15.12-8.7A4.3,4.3,0,0,1,312,230.08Z"/><path class="cls-1" d="M332.89,244.09q7.46,4.26,15,8.51a1.76,1.76,0,0,1,0,3.06c-7,4-7.72,4.59-14.93,8.81a4.29,4.29,0,0,1-4.39,0l-15-8.52a1.74,1.74,0,0,1-.91-1.52,1.68,1.68,0,0,1,.86-1.53c6.95-4.07,7.66-4.63,14.92-8.83A4.29,4.29,0,0,1,332.89,244.09Z"/><path class="cls-43" d="M332.89,241.94q7.46,4.26,15,8.51a1.75,1.75,0,0,1,.91,1.53,1.7,1.7,0,0,1-.86,1.53c-7,4-7.93,4.44-15.14,8.65a4.29,4.29,0,0,1-4.39,0l-15-8.48a1.74,1.74,0,0,1-.91-1.52,1.68,1.68,0,0,1,.86-1.53c6.95-4.06,7.86-4.5,15.12-8.7A4.3,4.3,0,0,1,332.89,241.94Z"/><path class="cls-1" d="M353.78,255.94q7.46,4.26,15,8.52a1.76,1.76,0,0,1,0,3.06c-7,4-7.72,4.59-14.93,8.81a4.29,4.29,0,0,1-4.39,0l-15-8.52a1.75,1.75,0,0,1-.91-1.53,1.68,1.68,0,0,1,.86-1.52c6.95-4.07,7.66-4.63,14.93-8.83A4.3,4.3,0,0,1,353.78,255.94Z"/><path class="cls-44" d="M353.78,253.8q7.46,4.26,15,8.51a1.75,1.75,0,0,1,.91,1.53,1.7,1.7,0,0,1-.86,1.53c-7,4-7.93,4.43-15.14,8.65a4.31,4.31,0,0,1-4.39,0l-15-8.48a1.75,1.75,0,0,1-.91-1.53,1.7,1.7,0,0,1,.86-1.52c7-4.07,7.86-4.5,15.12-8.7A4.3,4.3,0,0,1,353.78,253.8Z"/><path class="cls-1" d="M374.67,267.8q7.45,4.26,15,8.51a1.76,1.76,0,0,1,.91,1.53,1.67,1.67,0,0,1-.87,1.53c-7,4-7.72,4.6-14.93,8.81a4.29,4.29,0,0,1-4.39,0l-15-8.53a1.73,1.73,0,0,1-.91-1.52,1.69,1.69,0,0,1,.86-1.52c6.95-4.07,7.66-4.63,14.93-8.83A4.3,4.3,0,0,1,374.67,267.8Z"/><path class="cls-45" d="M374.67,265.66q7.45,4.26,15,8.51a1.74,1.74,0,0,1,.91,1.52,1.7,1.7,0,0,1-.86,1.54c-7,4-7.92,4.43-15.14,8.64a4.29,4.29,0,0,1-4.39,0l-15-8.49a1.76,1.76,0,0,1-.05-3c6.95-4.06,7.86-4.5,15.12-8.69A4.25,4.25,0,0,1,374.67,265.66Z"/><path class="cls-1" d="M395.56,279.66q7.45,4.26,15,8.51a1.75,1.75,0,0,1,.91,1.53,1.68,1.68,0,0,1-.86,1.53c-7,4-7.72,4.6-14.94,8.81a4.29,4.29,0,0,1-4.39,0l-15-8.53a1.76,1.76,0,0,1-.05-3c6.95-4.06,7.67-4.62,14.93-8.82A4.3,4.3,0,0,1,395.56,279.66Z"/><path class="cls-46" d="M395.56,277.52q7.45,4.26,15,8.51a1.74,1.74,0,0,1,.91,1.52,1.68,1.68,0,0,1-.86,1.53c-7,4-7.92,4.44-15.14,8.65a4.31,4.31,0,0,1-4.39,0l-15-8.49a1.75,1.75,0,0,1-.91-1.52,1.71,1.71,0,0,1,.86-1.53c6.95-4.06,7.86-4.5,15.12-8.7A4.27,4.27,0,0,1,395.56,277.52Z"/><path class="cls-1" d="M416.45,291.52q7.46,4.26,15,8.51a1.75,1.75,0,0,1,.91,1.53,1.68,1.68,0,0,1-.86,1.53c-7,4-7.72,4.6-14.94,8.81a4.31,4.31,0,0,1-4.39,0l-15-8.53a1.76,1.76,0,0,1-.05-3.05c6.95-4.06,7.67-4.62,14.93-8.82A4.3,4.3,0,0,1,416.45,291.52Z"/><path class="cls-47" d="M416.45,289.37q7.47,4.26,15,8.52a1.74,1.74,0,0,1,.9,1.52,1.68,1.68,0,0,1-.86,1.53c-7,4-7.92,4.44-15.14,8.65a4.29,4.29,0,0,1-4.39,0l-15-8.48a1.75,1.75,0,0,1-.91-1.52,1.73,1.73,0,0,1,.86-1.53c7-4.06,7.86-4.5,15.12-8.7A4.3,4.3,0,0,1,416.45,289.37Z"/><path class="cls-1" d="M437.34,303.38q7.46,4.26,15,8.51a1.75,1.75,0,0,1,.91,1.53,1.68,1.68,0,0,1-.86,1.53c-7,4-7.72,4.6-14.94,8.81a4.29,4.29,0,0,1-4.39,0l-15-8.52a1.73,1.73,0,0,1-.91-1.52,1.71,1.71,0,0,1,.86-1.53c7-4.07,7.67-4.62,14.93-8.82A4.3,4.3,0,0,1,437.34,303.38Z"/><path class="cls-48" d="M437.34,301.23q7.46,4.26,15,8.51a1.77,1.77,0,0,1,.9,1.53,1.68,1.68,0,0,1-.86,1.53c-7,4-7.93,4.44-15.14,8.65a4.29,4.29,0,0,1-4.39,0l-15-8.48a1.74,1.74,0,0,1-.91-1.52,1.7,1.7,0,0,1,.86-1.53c7-4.06,7.86-4.5,15.12-8.7A4.3,4.3,0,0,1,437.34,301.23Z"/><path class="cls-1" d="M458.23,315.23q7.45,4.26,15,8.52a1.74,1.74,0,0,1,.91,1.52,1.71,1.71,0,0,1-.86,1.54c-7,4-7.72,4.59-14.94,8.81a4.29,4.29,0,0,1-4.39,0l-15-8.52a1.74,1.74,0,0,1-.91-1.52,1.7,1.7,0,0,1,.86-1.53c6.95-4.07,7.67-4.62,14.93-8.83A4.3,4.3,0,0,1,458.23,315.23Z"/><path class="cls-49" d="M458.23,313.09q7.45,4.26,15,8.51a1.75,1.75,0,0,1,.91,1.53,1.68,1.68,0,0,1-.86,1.53c-7,4-7.92,4.43-15.14,8.65a4.29,4.29,0,0,1-4.39,0l-15-8.48a1.76,1.76,0,0,1-.91-1.52,1.72,1.72,0,0,1,.86-1.53c6.95-4.07,7.86-4.5,15.12-8.7A4.3,4.3,0,0,1,458.23,313.09Z"/><path class="cls-1" d="M479.12,327.1q7.45,4.26,15,8.51a1.75,1.75,0,0,1,.91,1.53,1.72,1.72,0,0,1-.86,1.53c-7,4-7.73,4.6-14.94,8.81a4.29,4.29,0,0,1-4.39,0l-15-8.52a1.74,1.74,0,0,1-.91-1.52,1.7,1.7,0,0,1,.86-1.53c7-4.07,7.67-4.62,14.93-8.82A4.25,4.25,0,0,1,479.12,327.1Z"/><path class="cls-50" d="M479.12,325q7.45,4.26,15,8.51A1.75,1.75,0,0,1,495,335a1.68,1.68,0,0,1-.86,1.53c-7,4-7.93,4.43-15.14,8.65a4.29,4.29,0,0,1-4.39,0l-15-8.48a1.74,1.74,0,0,1-.91-1.52,1.7,1.7,0,0,1,.86-1.53c6.95-4.07,7.86-4.5,15.12-8.7A4.3,4.3,0,0,1,479.12,325Z"/><path class="cls-1" d="M144.86,161.32q7.47,4.26,15,8.52a1.75,1.75,0,0,1,.91,1.52,1.69,1.69,0,0,1-.87,1.53c-7,4-7.72,4.6-14.94,8.82a4.29,4.29,0,0,1-4.39,0l-15-8.52a1.76,1.76,0,0,1-.9-1.53,1.68,1.68,0,0,1,.86-1.52c6.95-4.07,7.66-4.63,14.92-8.83A4.3,4.3,0,0,1,144.86,161.32Z"/><path class="cls-51" d="M144.86,159.18q7.47,4.26,15,8.51a1.75,1.75,0,0,1,.91,1.53,1.7,1.7,0,0,1-.87,1.53c-7,4-7.92,4.43-15.14,8.65a4.3,4.3,0,0,1-4.38,0l-15-8.49a1.74,1.74,0,0,1-.9-1.52,1.68,1.68,0,0,1,.86-1.52c6.95-4.07,7.85-4.5,15.11-8.7A4.3,4.3,0,0,1,144.86,159.18Z"/><path class="cls-1" d="M165.76,173.18q7.45,4.26,15,8.51a1.75,1.75,0,0,1,.91,1.53,1.69,1.69,0,0,1-.87,1.53c-7,4-7.72,4.6-14.93,8.81a4.29,4.29,0,0,1-4.39,0l-15-8.53a1.73,1.73,0,0,1-.91-1.52,1.68,1.68,0,0,1,.86-1.52c7-4.07,7.66-4.63,14.92-8.83A4.31,4.31,0,0,1,165.76,173.18Z"/><path class="cls-52" d="M165.76,171q7.45,4.26,15,8.51a1.75,1.75,0,0,1,.91,1.53,1.7,1.7,0,0,1-.87,1.53c-7,4-7.92,4.43-15.13,8.64a4.29,4.29,0,0,1-4.39,0l-15-8.49a1.73,1.73,0,0,1-.91-1.52,1.69,1.69,0,0,1,.86-1.53c7-4.06,7.86-4.5,15.12-8.69A4.25,4.25,0,0,1,165.76,171Z"/><path class="cls-1" d="M186.64,185q7.47,4.26,15,8.51a1.75,1.75,0,0,1,.91,1.53,1.69,1.69,0,0,1-.87,1.53c-7,4-7.72,4.6-14.93,8.81a4.29,4.29,0,0,1-4.39,0c-5-2.83-10-5.68-15-8.52a1.73,1.73,0,0,1-.91-1.52,1.69,1.69,0,0,1,.86-1.53c6.95-4.06,7.66-4.62,14.92-8.82A4.3,4.3,0,0,1,186.64,185Z"/><path class="cls-53" d="M186.65,182.89q7.46,4.26,15,8.52a1.73,1.73,0,0,1,.91,1.52,1.7,1.7,0,0,1-.86,1.53c-7,4-7.93,4.44-15.14,8.65a4.29,4.29,0,0,1-4.39,0l-15-8.48a1.74,1.74,0,0,1-.91-1.52,1.71,1.71,0,0,1,.86-1.53c6.95-4.06,7.86-4.5,15.12-8.7A4.3,4.3,0,0,1,186.65,182.89Z"/><path class="cls-1" d="M207.53,196.9q7.47,4.26,15,8.51a1.75,1.75,0,0,1,.91,1.53,1.69,1.69,0,0,1-.87,1.53c-7,4-7.72,4.6-14.94,8.81a4.27,4.27,0,0,1-4.38,0l-15-8.52a1.73,1.73,0,0,1-.91-1.52,1.69,1.69,0,0,1,.86-1.53c7-4.06,7.66-4.62,14.92-8.82A4.3,4.3,0,0,1,207.53,196.9Z"/><path class="cls-54" d="M207.54,194.75q7.46,4.26,15,8.52a1.72,1.72,0,0,1,.91,1.52,1.69,1.69,0,0,1-.87,1.53c-7,4-7.92,4.44-15.13,8.65a4.29,4.29,0,0,1-4.39,0l-15-8.48a1.75,1.75,0,0,1-.9-1.52,1.69,1.69,0,0,1,.86-1.53c7-4.06,7.86-4.5,15.11-8.7A4.31,4.31,0,0,1,207.54,194.75Z"/><path class="cls-1" d="M228.43,208.76q7.45,4.26,15,8.51a1.75,1.75,0,0,1,.91,1.53,1.7,1.7,0,0,1-.87,1.53c-7,4-7.72,4.6-14.93,8.81a4.29,4.29,0,0,1-4.39,0l-15-8.52a1.74,1.74,0,0,1-.91-1.52,1.69,1.69,0,0,1,.86-1.53c6.95-4.07,7.66-4.62,14.92-8.82A4.27,4.27,0,0,1,228.43,208.76Z"/><path class="cls-55" d="M228.43,206.61q7.45,4.26,15,8.51a1.75,1.75,0,0,1,.91,1.53,1.7,1.7,0,0,1-.86,1.53c-7,4-7.93,4.44-15.14,8.65a4.29,4.29,0,0,1-4.39,0c-5-2.84-10-5.64-15-8.48a1.74,1.74,0,0,1-.91-1.52,1.7,1.7,0,0,1,.86-1.53c6.95-4.07,7.86-4.5,15.12-8.7A4.3,4.3,0,0,1,228.43,206.61Z"/><path class="cls-1" d="M249.32,220.62q7.45,4.26,15,8.51a1.76,1.76,0,0,1,0,3.06c-7,4-7.72,4.59-14.93,8.81a4.29,4.29,0,0,1-4.39,0l-15-8.52a1.74,1.74,0,0,1-.91-1.52,1.68,1.68,0,0,1,.86-1.53c7-4.07,7.66-4.62,14.93-8.83A4.27,4.27,0,0,1,249.32,220.62Z"/><path class="cls-56" d="M249.32,218.47q7.45,4.26,15,8.51a1.75,1.75,0,0,1,.91,1.53,1.7,1.7,0,0,1-.86,1.53c-7,4-7.93,4.44-15.14,8.65a4.29,4.29,0,0,1-4.39,0l-15-8.48a1.74,1.74,0,0,1-.91-1.52,1.7,1.7,0,0,1,.86-1.53c7-4.07,7.86-4.5,15.12-8.7A4.3,4.3,0,0,1,249.32,218.47Z"/><path class="cls-1" d="M270.21,232.47q7.46,4.26,15,8.51a1.76,1.76,0,0,1,.91,1.53,1.68,1.68,0,0,1-.86,1.53c-7,4-7.73,4.6-14.94,8.81a4.27,4.27,0,0,1-4.39,0l-15-8.53a1.73,1.73,0,0,1-.91-1.52,1.7,1.7,0,0,1,.86-1.52c7-4.07,7.67-4.63,14.93-8.83A4.3,4.3,0,0,1,270.21,232.47Z"/><path class="cls-57" d="M270.21,230.33q7.46,4.26,15,8.51a1.75,1.75,0,0,1,.91,1.53,1.68,1.68,0,0,1-.86,1.53c-7,4-7.93,4.43-15.14,8.65a4.31,4.31,0,0,1-4.39,0l-15-8.49a1.76,1.76,0,0,1,0-3c7-4.06,7.86-4.49,15.12-8.69A4.3,4.3,0,0,1,270.21,230.33Z"/><path class="cls-1" d="M291.1,244.33q7.45,4.26,15,8.51a1.76,1.76,0,0,1,.91,1.53,1.68,1.68,0,0,1-.86,1.53c-7,4-7.73,4.6-14.94,8.81a4.29,4.29,0,0,1-4.39,0l-15-8.53a1.73,1.73,0,0,1-.91-1.52,1.68,1.68,0,0,1,.86-1.52c7-4.07,7.66-4.63,14.93-8.83A4.3,4.3,0,0,1,291.1,244.33Z"/><path class="cls-58" d="M291.1,242.19q7.45,4.26,15,8.51a1.74,1.74,0,0,1,.91,1.52,1.71,1.71,0,0,1-.86,1.54c-7,4-7.93,4.43-15.14,8.64a4.29,4.29,0,0,1-4.39,0l-15-8.49a1.76,1.76,0,0,1,0-3.05c6.95-4.06,7.86-4.5,15.12-8.69A4.25,4.25,0,0,1,291.1,242.19Z"/><path class="cls-1" d="M312,256.19q7.45,4.26,15,8.51a1.75,1.75,0,0,1,.91,1.53,1.69,1.69,0,0,1-.87,1.53c-7,4-7.72,4.6-14.93,8.81a4.27,4.27,0,0,1-4.39,0c-5-2.83-10-5.68-15-8.52a1.73,1.73,0,0,1-.91-1.52,1.7,1.7,0,0,1,.86-1.53c6.95-4.06,7.66-4.62,14.93-8.82A4.3,4.3,0,0,1,312,256.19Z"/><path class="cls-59" d="M312,254.05q7.45,4.26,15,8.51a1.77,1.77,0,0,1,.05,3.06c-7,4-7.93,4.43-15.14,8.64a4.29,4.29,0,0,1-4.39,0l-15-8.49a1.73,1.73,0,0,1-.91-1.52,1.71,1.71,0,0,1,.86-1.53c6.95-4.06,7.86-4.5,15.12-8.7A4.27,4.27,0,0,1,312,254.05Z"/><path class="cls-1" d="M332.88,268.05q7.46,4.26,15,8.51a1.75,1.75,0,0,1,.91,1.53,1.68,1.68,0,0,1-.86,1.53c-7,4-7.73,4.6-14.94,8.81a4.31,4.31,0,0,1-4.39,0l-15-8.53a1.73,1.73,0,0,1-.91-1.52,1.71,1.71,0,0,1,.86-1.53c6.95-4.06,7.67-4.62,14.92-8.82A4.31,4.31,0,0,1,332.88,268.05Z"/><path class="cls-60" d="M332.88,265.9q7.46,4.26,15,8.52a1.73,1.73,0,0,1,.91,1.52,1.68,1.68,0,0,1-.86,1.53c-7,4-7.92,4.44-15.14,8.65a4.29,4.29,0,0,1-4.39,0l-15-8.48a1.75,1.75,0,0,1-.91-1.52,1.71,1.71,0,0,1,.86-1.53c7-4.06,7.86-4.5,15.12-8.7A4.3,4.3,0,0,1,332.88,265.9Z"/><path class="cls-1" d="M353.77,279.91q7.46,4.26,15,8.51a1.75,1.75,0,0,1,.91,1.53,1.69,1.69,0,0,1-.86,1.53c-7,4-7.73,4.59-14.94,8.81a4.29,4.29,0,0,1-4.39,0l-15-8.52a1.76,1.76,0,0,1-.05-3c7-4.07,7.67-4.62,14.93-8.83A4.32,4.32,0,0,1,353.77,279.91Z"/><path class="cls-61" d="M353.77,277.76q7.46,4.26,15,8.51a1.75,1.75,0,0,1,.91,1.53,1.68,1.68,0,0,1-.86,1.53c-7,4-7.93,4.44-15.14,8.65a4.29,4.29,0,0,1-4.39,0l-15-8.48a1.76,1.76,0,0,1-.91-1.52,1.72,1.72,0,0,1,.86-1.53c7-4.06,7.86-4.5,15.12-8.7A4.3,4.3,0,0,1,353.77,277.76Z"/><path class="cls-1" d="M374.66,291.76q7.45,4.26,15,8.52a1.74,1.74,0,0,1,.91,1.52,1.71,1.71,0,0,1-.86,1.54c-7,4-7.72,4.59-14.94,8.81a4.29,4.29,0,0,1-4.39,0l-15-8.52a1.74,1.74,0,0,1-.91-1.52,1.72,1.72,0,0,1,.86-1.53c6.95-4.07,7.67-4.62,14.93-8.83A4.3,4.3,0,0,1,374.66,291.76Z"/><path class="cls-62" d="M374.66,289.62q7.47,4.26,15,8.51a1.76,1.76,0,0,1,.9,1.53,1.66,1.66,0,0,1-.86,1.53c-7,4-7.92,4.43-15.14,8.65a4.29,4.29,0,0,1-4.39,0l-15-8.48a1.76,1.76,0,0,1-.91-1.52,1.72,1.72,0,0,1,.86-1.53c7-4.07,7.86-4.5,15.12-8.7A4.3,4.3,0,0,1,374.66,289.62Z"/><path class="cls-1" d="M395.55,303.63q7.45,4.25,15,8.51a1.73,1.73,0,0,1,.91,1.52,1.68,1.68,0,0,1-.86,1.53c-7,4-7.72,4.6-14.94,8.81a4.27,4.27,0,0,1-4.39,0l-15-8.52a1.77,1.77,0,0,1-.91-1.53,1.72,1.72,0,0,1,.86-1.52c7-4.07,7.67-4.62,14.93-8.83A4.27,4.27,0,0,1,395.55,303.63Z"/><path class="cls-63" d="M395.55,301.48q7.47,4.26,15,8.51a1.77,1.77,0,0,1,.91,1.53,1.71,1.71,0,0,1-.87,1.53c-7,4-7.92,4.43-15.14,8.65a4.29,4.29,0,0,1-4.39,0l-15-8.48a1.78,1.78,0,0,1-.91-1.52,1.72,1.72,0,0,1,.86-1.53c7-4.07,7.86-4.5,15.12-8.7A4.3,4.3,0,0,1,395.55,301.48Z"/><path class="cls-1" d="M416.44,315.48q7.46,4.26,15,8.52a1.73,1.73,0,0,1,.91,1.52,1.68,1.68,0,0,1-.86,1.53c-7,4-7.73,4.6-14.94,8.82a4.29,4.29,0,0,1-4.39,0l-15-8.52a1.76,1.76,0,0,1-.91-1.53,1.72,1.72,0,0,1,.86-1.52c7-4.07,7.67-4.63,14.93-8.83A4.3,4.3,0,0,1,416.44,315.48Z"/><path class="cls-64" d="M416.44,313.34q7.47,4.26,15,8.51a1.75,1.75,0,0,1,.91,1.53,1.68,1.68,0,0,1-.86,1.53c-7,4-7.93,4.43-15.14,8.65a4.31,4.31,0,0,1-4.39,0l-15-8.49a1.74,1.74,0,0,1-.91-1.52,1.72,1.72,0,0,1,.86-1.52c6.95-4.07,7.86-4.5,15.12-8.7A4.3,4.3,0,0,1,416.44,313.34Z"/><path class="cls-1" d="M437.33,327.34q7.46,4.26,15,8.51a1.75,1.75,0,0,1,.91,1.53,1.68,1.68,0,0,1-.86,1.53c-7,4-7.72,4.6-14.94,8.81a4.29,4.29,0,0,1-4.39,0l-15-8.53a1.75,1.75,0,0,1-.91-1.52,1.73,1.73,0,0,1,.86-1.53c7-4.06,7.67-4.62,14.93-8.82A4.3,4.3,0,0,1,437.33,327.34Z"/><path class="cls-65" d="M437.33,325.2q7.47,4.24,15,8.51a1.75,1.75,0,0,1,.91,1.52,1.72,1.72,0,0,1-.87,1.54c-7,4-7.92,4.43-15.14,8.64a4.31,4.31,0,0,1-4.39,0l-15-8.49a1.75,1.75,0,0,1-.91-1.52,1.73,1.73,0,0,1,.86-1.53c7-4.06,7.86-4.5,15.12-8.7A4.27,4.27,0,0,1,437.33,325.2Z"/><path class="cls-1" d="M458.22,339.2q7.45,4.26,15,8.51a1.75,1.75,0,0,1,.91,1.53,1.68,1.68,0,0,1-.86,1.53c-7,4-7.72,4.6-14.94,8.81a4.29,4.29,0,0,1-4.39,0l-15-8.53a1.73,1.73,0,0,1-.91-1.52,1.71,1.71,0,0,1,.86-1.53c6.95-4.06,7.67-4.62,14.93-8.82A4.3,4.3,0,0,1,458.22,339.2Z"/><path class="cls-66" d="M458.22,337.05q7.45,4.26,15,8.52a1.73,1.73,0,0,1,.91,1.52,1.68,1.68,0,0,1-.86,1.53c-7,4-7.92,4.44-15.14,8.65a4.31,4.31,0,0,1-4.39,0l-15-8.49a1.73,1.73,0,0,1-.91-1.52,1.71,1.71,0,0,1,.86-1.53c6.95-4.06,7.86-4.5,15.12-8.7A4.3,4.3,0,0,1,458.22,337.05Z"/><path class="cls-1" d="M124,173.43q7.47,4.26,15,8.51a1.75,1.75,0,0,1,.91,1.53A1.69,1.69,0,0,1,139,185c-7,4-7.72,4.6-14.94,8.81a4.27,4.27,0,0,1-4.38,0l-15-8.52a1.74,1.74,0,0,1-.9-1.52,1.69,1.69,0,0,1,.86-1.53c7-4.06,7.66-4.62,14.92-8.82A4.3,4.3,0,0,1,124,173.43Z"/><path class="cls-67" d="M124,171.28q7.46,4.26,15,8.52a1.73,1.73,0,0,1,.91,1.52,1.69,1.69,0,0,1-.87,1.53c-7,4-7.92,4.44-15.13,8.65a4.29,4.29,0,0,1-4.39,0l-15-8.48a1.75,1.75,0,0,1-.9-1.52,1.68,1.68,0,0,1,.86-1.53c7-4.06,7.85-4.5,15.11-8.7A4.31,4.31,0,0,1,124,171.28Z"/><path class="cls-1" d="M144.86,185.29q7.45,4.26,15,8.51a1.75,1.75,0,0,1,.91,1.53,1.7,1.7,0,0,1-.87,1.53c-7,4-7.72,4.6-14.93,8.81a4.29,4.29,0,0,1-4.39,0l-15-8.52a1.74,1.74,0,0,1-.91-1.52,1.69,1.69,0,0,1,.86-1.53c7-4.07,7.66-4.62,14.93-8.82A4.25,4.25,0,0,1,144.86,185.29Z"/><path class="cls-68" d="M144.86,183.14q7.45,4.26,15,8.51a1.75,1.75,0,0,1,.91,1.53,1.7,1.7,0,0,1-.86,1.53c-7,4-7.93,4.44-15.14,8.65a4.29,4.29,0,0,1-4.39,0l-15-8.48a1.74,1.74,0,0,1-.91-1.52,1.7,1.7,0,0,1,.86-1.53c7-4.07,7.86-4.5,15.12-8.7A4.3,4.3,0,0,1,144.86,183.14Z"/><path class="cls-1" d="M165.75,197.14q7.45,4.26,15,8.52a1.73,1.73,0,0,1,.91,1.52,1.67,1.67,0,0,1-.87,1.53c-7,4-7.72,4.6-14.93,8.82a4.31,4.31,0,0,1-4.39,0l-15-8.52a1.75,1.75,0,0,1-.91-1.53,1.7,1.7,0,0,1,.86-1.52c6.95-4.07,7.67-4.63,14.93-8.83A4.3,4.3,0,0,1,165.75,197.14Z"/><path class="cls-69" d="M165.75,195q7.45,4.26,15,8.51a1.75,1.75,0,0,1,.91,1.53,1.68,1.68,0,0,1-.86,1.53c-7,4-7.93,4.43-15.14,8.65a4.31,4.31,0,0,1-4.39,0l-15-8.49a1.72,1.72,0,0,1-.91-1.52,1.7,1.7,0,0,1,.86-1.52c6.95-4.07,7.86-4.5,15.12-8.7A4.3,4.3,0,0,1,165.75,195Z"/><path class="cls-1" d="M186.64,209q7.46,4.26,15,8.51a1.76,1.76,0,0,1,.91,1.53,1.69,1.69,0,0,1-.87,1.53c-7,4-7.72,4.6-14.93,8.81a4.27,4.27,0,0,1-4.39,0l-15-8.53a1.73,1.73,0,0,1-.91-1.52,1.68,1.68,0,0,1,.86-1.52c6.95-4.07,7.66-4.63,14.92-8.83A4.31,4.31,0,0,1,186.64,209Z"/><path class="cls-70" d="M186.64,206.86q7.46,4.26,15,8.51a1.75,1.75,0,0,1,.91,1.53,1.69,1.69,0,0,1-.87,1.53c-7,4-7.92,4.43-15.13,8.65a4.31,4.31,0,0,1-4.39,0l-15-8.49a1.74,1.74,0,0,1-.9-1.52,1.72,1.72,0,0,1,.86-1.53c7-4.06,7.86-4.49,15.12-8.69A4.3,4.3,0,0,1,186.64,206.86Z"/><path class="cls-1" d="M207.53,220.86q7.46,4.26,15,8.51a1.76,1.76,0,0,1,.91,1.53,1.69,1.69,0,0,1-.87,1.53c-7,4-7.72,4.6-14.93,8.81a4.29,4.29,0,0,1-4.39,0l-15-8.52a1.76,1.76,0,0,1-.91-1.53,1.67,1.67,0,0,1,.86-1.52c6.95-4.07,7.66-4.63,14.93-8.83A4.3,4.3,0,0,1,207.53,220.86Z"/><path class="cls-71" d="M207.53,218.72q7.46,4.26,15,8.51a1.75,1.75,0,0,1,.91,1.53,1.72,1.72,0,0,1-.86,1.53c-7,4-7.93,4.43-15.14,8.64a4.29,4.29,0,0,1-4.39,0l-15-8.49a1.76,1.76,0,0,1-.05-3.05c6.95-4.06,7.86-4.5,15.12-8.7A4.27,4.27,0,0,1,207.53,218.72Z"/><path class="cls-1" d="M228.42,232.72q7.46,4.26,15,8.51a1.75,1.75,0,0,1,.91,1.53,1.68,1.68,0,0,1-.86,1.53c-7,4-7.72,4.6-14.94,8.81a4.27,4.27,0,0,1-4.39,0c-5-2.83-10-5.68-15-8.52a1.73,1.73,0,0,1-.91-1.52,1.71,1.71,0,0,1,.86-1.53c6.95-4.06,7.67-4.62,14.93-8.82A4.3,4.3,0,0,1,228.42,232.72Z"/><path class="cls-72" d="M228.42,230.58q7.46,4.26,15,8.51a1.74,1.74,0,0,1,.91,1.52,1.71,1.71,0,0,1-.86,1.54c-7,4-7.93,4.43-15.14,8.64a4.29,4.29,0,0,1-4.39,0l-15-8.49a1.75,1.75,0,0,1-.91-1.52,1.71,1.71,0,0,1,.86-1.53c7-4.06,7.86-4.5,15.12-8.7A4.27,4.27,0,0,1,228.42,230.58Z"/><path class="cls-1" d="M249.31,244.58q7.45,4.26,15,8.51a1.75,1.75,0,0,1,.91,1.53,1.67,1.67,0,0,1-.87,1.53c-7,4-7.72,4.6-14.93,8.81a4.29,4.29,0,0,1-4.39,0l-15-8.52a1.76,1.76,0,0,1-.05-3c6.95-4.07,7.66-4.62,14.93-8.82A4.3,4.3,0,0,1,249.31,244.58Z"/><path class="cls-73" d="M249.31,242.43q7.47,4.26,15,8.51a1.76,1.76,0,0,1,.91,1.53,1.68,1.68,0,0,1-.86,1.53c-7,4-7.93,4.44-15.14,8.65a4.29,4.29,0,0,1-4.39,0l-15-8.48a1.74,1.74,0,0,1-.91-1.52,1.7,1.7,0,0,1,.86-1.53c6.95-4.06,7.86-4.5,15.12-8.7A4.3,4.3,0,0,1,249.31,242.43Z"/><path class="cls-1" d="M270.2,256.44q7.46,4.26,15,8.51a1.74,1.74,0,0,1,.91,1.52,1.7,1.7,0,0,1-.86,1.54c-7,4-7.72,4.59-14.94,8.81a4.29,4.29,0,0,1-4.39,0l-15-8.52a1.73,1.73,0,0,1-.91-1.52,1.7,1.7,0,0,1,.86-1.53c7-4.07,7.67-4.62,14.93-8.83A4.32,4.32,0,0,1,270.2,256.44Z"/><path class="cls-74" d="M270.2,254.29q7.46,4.26,15,8.51a1.79,1.79,0,0,1,.91,1.53,1.71,1.71,0,0,1-.87,1.53c-7,4-7.92,4.44-15.14,8.65a4.29,4.29,0,0,1-4.39,0l-15-8.48a1.76,1.76,0,0,1-.91-1.52,1.72,1.72,0,0,1,.86-1.53c7-4.06,7.86-4.5,15.12-8.7A4.3,4.3,0,0,1,270.2,254.29Z"/><path class="cls-1" d="M291.09,268.3q7.46,4.26,15,8.51a1.75,1.75,0,0,1,.91,1.53,1.7,1.7,0,0,1-.86,1.53c-7,4-7.72,4.59-14.94,8.81a4.29,4.29,0,0,1-4.39,0l-15-8.52a1.74,1.74,0,0,1-.91-1.52,1.7,1.7,0,0,1,.86-1.53c7-4.07,7.67-4.62,14.93-8.83A4.27,4.27,0,0,1,291.09,268.3Z"/><path class="cls-75" d="M291.09,266.15q7.46,4.26,15,8.51a1.75,1.75,0,0,1,.91,1.53,1.68,1.68,0,0,1-.86,1.53c-7,4-7.93,4.43-15.14,8.65a4.29,4.29,0,0,1-4.39,0l-15-8.48a1.77,1.77,0,0,1-.91-1.53,1.72,1.72,0,0,1,.86-1.52c7-4.07,7.86-4.5,15.12-8.7A4.3,4.3,0,0,1,291.09,266.15Z"/><path class="cls-1" d="M312,280.16q7.45,4.24,15,8.51a1.73,1.73,0,0,1,.91,1.52,1.68,1.68,0,0,1-.86,1.53c-7,4-7.72,4.6-14.94,8.82a4.29,4.29,0,0,1-4.39,0l-15-8.52a1.75,1.75,0,0,1-.91-1.53,1.72,1.72,0,0,1,.86-1.52c6.95-4.07,7.67-4.63,14.93-8.83A4.27,4.27,0,0,1,312,280.16Z"/><path class="cls-76" d="M312,278q7.47,4.26,15,8.51a1.76,1.76,0,0,1,.9,1.53,1.68,1.68,0,0,1-.86,1.53c-7,4-7.92,4.43-15.14,8.65a4.29,4.29,0,0,1-4.39,0l-15-8.48a1.74,1.74,0,0,1-.91-1.52,1.7,1.7,0,0,1,.86-1.53c6.95-4.07,7.86-4.5,15.12-8.7A4.3,4.3,0,0,1,312,278Z"/><path class="cls-1" d="M332.87,292q7.45,4.26,15,8.51a1.75,1.75,0,0,1,.91,1.53,1.68,1.68,0,0,1-.86,1.53c-7,4-7.72,4.6-14.94,8.81a4.29,4.29,0,0,1-4.39,0l-15-8.53a1.76,1.76,0,0,1-.05-3.05c7-4.06,7.67-4.62,14.93-8.82A4.3,4.3,0,0,1,332.87,292Z"/><path class="cls-77" d="M332.87,289.87q7.45,4.26,15,8.51a1.76,1.76,0,0,1,.91,1.52,1.72,1.72,0,0,1-.87,1.54c-7,4-7.92,4.43-15.14,8.64a4.29,4.29,0,0,1-4.39,0l-15-8.49a1.77,1.77,0,0,1-.91-1.52,1.74,1.74,0,0,1,.86-1.53c7-4.06,7.86-4.49,15.12-8.7A4.32,4.32,0,0,1,332.87,289.87Z"/><path class="cls-1" d="M353.76,303.87q7.46,4.26,15,8.51a1.75,1.75,0,0,1,.91,1.53,1.68,1.68,0,0,1-.86,1.53c-7,4-7.72,4.6-14.94,8.81a4.31,4.31,0,0,1-4.39,0l-15-8.53a1.74,1.74,0,0,1-.9-1.52,1.7,1.7,0,0,1,.85-1.53c7-4.06,7.67-4.62,14.93-8.82A4.3,4.3,0,0,1,353.76,303.87Z"/><path class="cls-78" d="M353.76,301.73q7.47,4.25,15,8.51a1.77,1.77,0,0,1,.91,1.52,1.72,1.72,0,0,1-.87,1.54c-7,4-7.92,4.43-15.14,8.64a4.31,4.31,0,0,1-4.39,0l-15-8.49a1.72,1.72,0,0,1-.9-1.52,1.7,1.7,0,0,1,.85-1.53c7-4.06,7.86-4.5,15.12-8.7A4.27,4.27,0,0,1,353.76,301.73Z"/><path class="cls-1" d="M374.65,315.73q7.47,4.26,15,8.51a1.76,1.76,0,0,1,.9,1.53,1.68,1.68,0,0,1-.86,1.53c-7,4-7.72,4.6-14.94,8.81a4.27,4.27,0,0,1-4.39,0c-5-2.83-10-5.68-15-8.52a1.72,1.72,0,0,1-.9-1.52,1.7,1.7,0,0,1,.85-1.53c7-4.06,7.67-4.62,14.93-8.82A4.3,4.3,0,0,1,374.65,315.73Z"/><path class="cls-79" d="M374.65,313.59q7.47,4.25,15,8.51a1.75,1.75,0,0,1,.91,1.52,1.69,1.69,0,0,1-.87,1.53c-7,4-7.92,4.44-15.14,8.65a4.31,4.31,0,0,1-4.39,0l-15-8.49a1.74,1.74,0,0,1-.9-1.52,1.7,1.7,0,0,1,.85-1.53c7-4.06,7.86-4.5,15.12-8.7A4.27,4.27,0,0,1,374.65,313.59Z"/><path class="cls-1" d="M395.54,327.59q7.45,4.26,15,8.51a1.75,1.75,0,0,1,.91,1.53,1.68,1.68,0,0,1-.86,1.53c-7,4-7.72,4.6-14.94,8.81a4.29,4.29,0,0,1-4.39,0c-5-2.83-10-5.68-15-8.52a1.73,1.73,0,0,1-.91-1.52,1.71,1.71,0,0,1,.86-1.53c7-4.06,7.67-4.62,14.93-8.82A4.3,4.3,0,0,1,395.54,327.59Z"/><path class="cls-80" d="M395.54,325.44q7.47,4.26,15,8.52a1.74,1.74,0,0,1,.91,1.52,1.69,1.69,0,0,1-.87,1.53c-7,4-7.92,4.44-15.14,8.65a4.29,4.29,0,0,1-4.39,0l-15-8.48a1.76,1.76,0,0,1-.91-1.52,1.73,1.73,0,0,1,.86-1.53c7-4.06,7.86-4.5,15.12-8.7A4.3,4.3,0,0,1,395.54,325.44Z"/><path class="cls-1" d="M416.43,339.45q7.45,4.24,15,8.51a1.73,1.73,0,0,1,.91,1.52,1.71,1.71,0,0,1-.86,1.54c-7,4-7.72,4.59-14.94,8.81a4.29,4.29,0,0,1-4.39,0l-15-8.52a1.76,1.76,0,0,1-.9-1.53,1.69,1.69,0,0,1,.85-1.52c7-4.07,7.67-4.62,14.93-8.83A4.27,4.27,0,0,1,416.43,339.45Z"/><path class="cls-81" d="M416.43,337.3q7.47,4.26,15,8.51a1.79,1.79,0,0,1,.91,1.53,1.69,1.69,0,0,1-.87,1.53c-7,4-7.92,4.43-15.14,8.65a4.29,4.29,0,0,1-4.39,0l-15-8.48a1.75,1.75,0,0,1-.9-1.52,1.69,1.69,0,0,1,.85-1.53c7-4.07,7.86-4.5,15.12-8.7A4.3,4.3,0,0,1,416.43,337.3Z"/><path class="cls-1" d="M437.32,351.31q7.46,4.26,15,8.51a1.73,1.73,0,0,1,.91,1.52,1.7,1.7,0,0,1-.86,1.54c-7,4-7.72,4.59-14.94,8.81a4.29,4.29,0,0,1-4.39,0l-15-8.52a1.76,1.76,0,0,1-.91-1.52,1.72,1.72,0,0,1,.86-1.53c7-4.07,7.67-4.62,14.93-8.82A4.3,4.3,0,0,1,437.32,351.31Z"/><path class="cls-82" d="M437.32,349.16q7.47,4.26,15,8.51a1.79,1.79,0,0,1,.91,1.53,1.69,1.69,0,0,1-.87,1.53c-7,4-7.92,4.43-15.14,8.65a4.29,4.29,0,0,1-4.39,0l-15-8.48a1.77,1.77,0,0,1-.91-1.53,1.72,1.72,0,0,1,.86-1.52c7-4.07,7.86-4.5,15.12-8.7A4.3,4.3,0,0,1,437.32,349.16Z"/><path class="cls-1" d="M103.06,185.53q7.47,4.26,15,8.52a1.73,1.73,0,0,1,.91,1.52,1.69,1.69,0,0,1-.87,1.53c-7,4-7.72,4.6-14.93,8.82a4.31,4.31,0,0,1-4.39,0l-15-8.52a1.75,1.75,0,0,1-.91-1.53,1.68,1.68,0,0,1,.86-1.52c6.95-4.07,7.66-4.62,14.92-8.83A4.3,4.3,0,0,1,103.06,185.53Z"/><path class="cls-83" d="M103.07,183.39q7.46,4.26,15,8.51a1.75,1.75,0,0,1,.91,1.53,1.7,1.7,0,0,1-.87,1.53c-7,4-7.92,4.43-15.13,8.65a4.31,4.31,0,0,1-4.39,0l-15-8.49a1.74,1.74,0,0,1-.9-1.52,1.68,1.68,0,0,1,.86-1.52c7-4.07,7.86-4.5,15.12-8.7A4.3,4.3,0,0,1,103.07,183.39Z"/><path class="cls-1" d="M124,197.39q7.46,4.26,15,8.51a1.76,1.76,0,0,1,.91,1.53A1.69,1.69,0,0,1,139,209c-7,4-7.72,4.6-14.93,8.81a4.29,4.29,0,0,1-4.39,0l-15-8.52a1.76,1.76,0,0,1-.91-1.53,1.67,1.67,0,0,1,.86-1.52c6.95-4.07,7.66-4.63,14.93-8.83A4.3,4.3,0,0,1,124,197.39Z"/><path class="cls-84" d="M124,195.25q7.46,4.26,15,8.51a1.74,1.74,0,0,1,.91,1.53,1.71,1.71,0,0,1-.86,1.53c-7,4-7.93,4.43-15.14,8.64a4.29,4.29,0,0,1-4.39,0l-15-8.49a1.76,1.76,0,0,1-.05-3.05c7-4.06,7.86-4.5,15.12-8.69A4.25,4.25,0,0,1,124,195.25Z"/><path class="cls-1" d="M144.85,209.25q7.46,4.26,15,8.51a1.75,1.75,0,0,1,.91,1.53,1.68,1.68,0,0,1-.86,1.53c-7,4-7.73,4.6-14.94,8.81a4.31,4.31,0,0,1-4.39,0l-15-8.53a1.73,1.73,0,0,1-.91-1.52,1.71,1.71,0,0,1,.86-1.53c7-4.06,7.67-4.62,14.93-8.82A4.3,4.3,0,0,1,144.85,209.25Z"/><path class="cls-85" d="M144.85,207.1q7.46,4.26,15,8.52a1.73,1.73,0,0,1,.91,1.52,1.68,1.68,0,0,1-.86,1.53c-7,4-7.93,4.44-15.14,8.65a4.29,4.29,0,0,1-4.39,0l-15-8.48a1.73,1.73,0,0,1-.91-1.52,1.71,1.71,0,0,1,.86-1.53c7-4.06,7.86-4.5,15.12-8.7A4.3,4.3,0,0,1,144.85,207.1Z"/><path class="cls-1" d="M165.74,221.11q7.45,4.26,15,8.51a1.75,1.75,0,0,1,.91,1.53,1.67,1.67,0,0,1-.87,1.53c-7,4-7.72,4.6-14.93,8.81a4.29,4.29,0,0,1-4.39,0l-15-8.52a1.74,1.74,0,0,1-.91-1.52,1.69,1.69,0,0,1,.86-1.53c6.95-4.07,7.66-4.62,14.92-8.82A4.31,4.31,0,0,1,165.74,221.11Z"/><path class="cls-86" d="M165.74,219q7.45,4.26,15,8.51a1.75,1.75,0,0,1,.91,1.53,1.68,1.68,0,0,1-.86,1.53c-7,4-7.93,4.44-15.14,8.65a4.29,4.29,0,0,1-4.39,0l-15-8.48a1.74,1.74,0,0,1-.91-1.52,1.7,1.7,0,0,1,.86-1.53c6.95-4.06,7.86-4.5,15.12-8.7A4.3,4.3,0,0,1,165.74,219Z"/><path class="cls-1" d="M186.63,233c5,2.84,156.21,88.68,161.24,91.52a1.77,1.77,0,0,1,.91,1.52,1.72,1.72,0,0,1-.87,1.54c-7,4-7.72,4.59-14.94,8.81a4.29,4.29,0,0,1-4.39,0L167.37,244.84a1.73,1.73,0,0,1-.91-1.52,1.69,1.69,0,0,1,.86-1.53c7-4.07,7.66-4.62,14.93-8.83A4.32,4.32,0,0,1,186.63,233Z"/><path class="cls-87" d="M186.63,230.82c5,2.84,156.21,88.69,161.24,91.52a1.75,1.75,0,0,1,.91,1.53,1.69,1.69,0,0,1-.87,1.53c-7,4-7.92,4.44-15.14,8.65a4.29,4.29,0,0,1-4.39,0l-161.2-91.49a1.74,1.74,0,0,1-.91-1.52,1.7,1.7,0,0,1,.86-1.53c7-4.06,7.86-4.5,15.12-8.7A4.3,4.3,0,0,1,186.63,230.82Z"/><path class="cls-1" d="M353.75,327.83q7.47,4.26,15,8.52a1.72,1.72,0,0,1,.9,1.52,1.66,1.66,0,0,1-.86,1.53c-7,4-7.72,4.6-14.94,8.82a4.29,4.29,0,0,1-4.39,0l-15-8.52a1.76,1.76,0,0,1-.9-1.53,1.69,1.69,0,0,1,.85-1.52c7-4.07,7.67-4.63,14.93-8.83A4.3,4.3,0,0,1,353.75,327.83Z"/><path class="cls-88" d="M353.75,325.69q7.47,4.26,15,8.51a1.77,1.77,0,0,1,.91,1.53,1.69,1.69,0,0,1-.87,1.53c-7,4-7.92,4.43-15.14,8.65a4.31,4.31,0,0,1-4.39,0l-15-8.48a1.76,1.76,0,0,1-.9-1.53,1.69,1.69,0,0,1,.85-1.52c7-4.07,7.86-4.5,15.12-8.7A4.3,4.3,0,0,1,353.75,325.69Z"/><path class="cls-1" d="M374.64,339.69q7.47,4.26,15,8.52a1.74,1.74,0,0,1,.9,1.52,1.68,1.68,0,0,1-.86,1.53c-7,4-7.72,4.6-14.94,8.82a4.29,4.29,0,0,1-4.39,0l-15-8.52a1.76,1.76,0,0,1-.9-1.53,1.69,1.69,0,0,1,.85-1.52c7-4.07,7.67-4.63,14.93-8.83A4.3,4.3,0,0,1,374.64,339.69Z"/><path class="cls-89" d="M374.64,337.55q7.47,4.26,15,8.51a1.77,1.77,0,0,1,.91,1.53,1.69,1.69,0,0,1-.87,1.53c-7,4-7.92,4.43-15.14,8.65a4.31,4.31,0,0,1-4.39,0l-15-8.48a1.8,1.8,0,0,1-.91-1.53,1.72,1.72,0,0,1,.86-1.52c7-4.07,7.86-4.5,15.12-8.7A4.3,4.3,0,0,1,374.64,337.55Z"/><path class="cls-1" d="M395.53,351.55q7.47,4.26,15,8.51a1.78,1.78,0,0,1,.91,1.53,1.69,1.69,0,0,1-.87,1.53c-7,4-7.72,4.6-14.94,8.81a4.29,4.29,0,0,1-4.39,0l-15-8.53a1.75,1.75,0,0,1-.91-1.52,1.73,1.73,0,0,1,.86-1.53c7-4.06,7.67-4.62,14.93-8.82A4.3,4.3,0,0,1,395.53,351.55Z"/><path class="cls-90" d="M395.53,349.41q7.47,4.26,15,8.51a1.76,1.76,0,0,1,0,3.06c-7,4-7.92,4.43-15.14,8.64a4.29,4.29,0,0,1-4.39,0l-15-8.49a1.74,1.74,0,0,1-.9-1.52,1.72,1.72,0,0,1,.85-1.53c7-4.06,7.86-4.5,15.12-8.7A4.27,4.27,0,0,1,395.53,349.41Z"/><path class="cls-1" d="M416.42,363.41q7.45,4.26,15,8.51a1.76,1.76,0,0,1,.91,1.53,1.68,1.68,0,0,1-.86,1.53c-7,4-7.72,4.6-14.94,8.81a4.29,4.29,0,0,1-4.39,0l-15-8.53a1.76,1.76,0,0,1-.05-3c7-4.06,7.67-4.62,14.93-8.82A4.3,4.3,0,0,1,416.42,363.41Z"/><path class="cls-91" d="M416.42,361.26q7.47,4.26,15,8.52a1.75,1.75,0,0,1,.91,1.52,1.69,1.69,0,0,1-.87,1.53c-7,4-7.92,4.44-15.14,8.65a4.31,4.31,0,0,1-4.39,0L397,373a1.72,1.72,0,0,1-.9-1.52,1.7,1.7,0,0,1,.85-1.53c6.95-4.06,7.86-4.5,15.12-8.7A4.3,4.3,0,0,1,416.42,361.26Z"/></svg>