<svg id="Layer_1" data-name="Layer 1" xmlns="http://www.w3.org/2000/svg" xmlns:xlink="http://www.w3.org/1999/xlink" viewBox="0 0 448.83 146.65"><defs><style>.cls-1{fill:none;}.cls-2{clip-path:url(#clip-path);}.cls-3{fill:#288aca;}</style><clipPath id="clip-path"><rect class="cls-1" x="-173.04" y="-239.19" width="841.9" height="669.3"/></clipPath></defs><title>logo final</title><g class="cls-2"><path class="cls-3" d="M93.06,22.11H1.76a1.32,1.32,0,0,0-1.2,2l7.2,13.1h16.1v54.4H39V37.31h41.8Z"/></g><g class="cls-2"><path class="cls-3" d="M94.46,72.31a3.08,3.08,0,0,0,1.9-.6l4.4-3.7a3.21,3.21,0,0,0,1-2.2V30.11l-15.1,18.7v5.9a2.52,2.52,0,0,1-2.6,2.6H54.36v34.4h15.1V72.31H75l10,19.4h18.1l-10.6-19.4Z"/></g><g class="cls-2"><path class="cls-3" d="M169.26,26.71l-4.4-3.7a2.81,2.81,0,0,0-1.9-.7h-37.2a3,3,0,0,0-1.9.7l-5.7,4.7a3,3,0,0,0-1.1,2.2v55.3a3,3,0,0,0,1,2.2l4.4,3.7a2.61,2.61,0,0,0,1.8.6h37.1a3.08,3.08,0,0,0,1.9-.6l5.7-4.8a2.81,2.81,0,0,0,1-2.1l.1-55.3a1.86,1.86,0,0,0-.8-2.2m-14,50h-20.7a2.59,2.59,0,0,1-2.2-2.6V37.41h20.7a2.67,2.67,0,0,1,2.2,2.6Z"/></g><polygon class="cls-3" points="226.66 66.31 200.96 22.61 200.86 22.61 185.86 22.61 185.86 92.01 200.86 92.01 200.86 52.51 223.86 92.01 241.76 92.01 241.76 22.61 226.66 22.61 226.66 66.31"/><g class="cls-2"><path class="cls-3" d="M340.86,30.41a2.87,2.87,0,0,0-1-2.2l-5.7-4.8a2.88,2.88,0,0,0-1.9-.6h-49.7a.84.84,0,0,0-.7,1.3l8.5,13.8h32.8a2.61,2.61,0,0,1,2.6,2.7v14.6a2.52,2.52,0,0,1-2.6,2.6h-29.6v34.4h15.1V72.81h24.9a3.08,3.08,0,0,0,1.9-.6l4.4-3.7a3.13,3.13,0,0,0,1.1-2.2Z"/></g><g class="cls-2"><path class="cls-3" d="M402,90.31l-6.4-12.9h-21.9a2.6,2.6,0,0,1-2.1-2.6V38.11h21.9l8.6-13.7a.88.88,0,0,0-.7-1.3H365a2.79,2.79,0,0,0-1.8.6l-5.7,4.7a2.84,2.84,0,0,0-1,2.2v55.3a3,3,0,0,0,1,2.2l4.4,3.7a2.7,2.7,0,0,0,1.9.6h37c1.1.2,1.7-1.1,1.2-2.1"/></g><path class="cls-3" d="M425.46,114.31H258.06V.61h167.4Zm-161-6.5H419V7H264.46Z"/><polyline class="cls-3" points="260.76 115.41 235.26 137.81 341.76 137.81 448.26 137.81 422.76 115.41 341.76 115.41"/><polygon class="cls-3" points="448.26 145.91 448.26 142.21 341.76 140.11 235.26 142.21 235.26 145.81 448.26 145.91"/></svg>